<svg width="135" height="94" viewBox="0 0 135 94" fill="none" xmlns="http://www.w3.org/2000/svg">
<g filter="url(#filter0_d_79_1171)">
<path d="M42 8H45V5H42V8ZM42 78V81H45V78H42ZM18.7 78H15.7V81H18.7V78ZM18.7 31.3H21.7V28.3H18.7V31.3ZM7 31.3H4V34.3H7V31.3ZM7 8V5H4V8H7ZM39 8V78H45V8H39ZM42 75H18.7V81H42V75ZM21.7 78V31.3H15.7V78H21.7ZM18.7 28.3H7V34.3H18.7V28.3ZM10 31.3V8H4V31.3H10ZM7 11H42V5H7V11ZM59.6195 71L57.4982 73.1213L57.5116 73.1347L57.5252 73.148L59.6195 71ZM53.3195 61.7L50.5595 62.8756L50.5634 62.8849L50.5675 62.8943L53.3195 61.7ZM53.3195 24.4L56.0716 25.5943L56.0756 25.5849L56.0796 25.5756L53.3195 24.4ZM59.6195 15.1L61.7138 17.248L61.7274 17.2347L61.7409 17.2213L59.6195 15.1ZM103.42 8.8L102.225 11.552V11.552L103.42 8.8ZM112.62 15.1L110.472 17.1943L110.498 17.2215L110.525 17.248L112.62 15.1ZM118.92 24.4L116.159 25.5756L116.163 25.5849L116.168 25.5943L118.92 24.4ZM118.92 61.7L121.672 62.8943L121.676 62.8849L121.68 62.8756L118.92 61.7ZM112.62 71L110.498 68.8787L112.62 71ZM103.42 77.2L102.225 74.448L103.42 77.2ZM96.1195 54.5L93.9982 52.3787L96.1195 54.5ZM96.1195 31.5L98.2409 29.3787V29.3787L96.1195 31.5ZM76.1195 31.5L73.9982 29.3787L73.9982 29.3787L76.1195 31.5ZM76.1195 54.5L73.9982 56.6213L76.1195 54.5ZM80.2195 76.5C76.6142 76.5 73.2557 75.8114 70.1138 74.448L67.7253 79.952C71.6501 81.6553 75.8248 82.5 80.2195 82.5V76.5ZM70.1138 74.448C66.9031 73.0546 64.1107 71.189 61.7138 68.852L57.5252 73.148C60.4617 76.011 63.8693 78.2787 67.7253 79.952L70.1138 74.448ZM61.7409 68.8787C59.3466 66.4844 57.4581 63.7007 56.0716 60.5057L50.5675 62.8943C52.2477 66.766 54.5592 70.1823 57.4982 73.1213L61.7409 68.8787ZM56.0796 60.5244C54.7082 57.3045 54.0195 53.9052 54.0195 50.3H48.0195C48.0195 54.6948 48.8642 58.8955 50.5595 62.8756L56.0796 60.5244ZM54.0195 50.3V35.7H48.0195V50.3H54.0195ZM54.0195 35.7C54.0195 32.0947 54.7081 28.7361 56.0716 25.5943L50.5675 23.2057C48.8643 27.1305 48.0195 31.3053 48.0195 35.7H54.0195ZM56.0796 25.5756C57.4655 22.3218 59.3455 19.5572 61.7138 17.248L57.5252 12.952C54.5603 15.8428 52.2402 19.2782 50.5595 23.2244L56.0796 25.5756ZM61.7409 17.2213C64.1351 14.827 66.9188 12.9385 70.1138 11.552L67.7253 6.04796C63.8536 7.72813 60.4373 10.0396 57.4982 12.9787L61.7409 17.2213ZM70.1138 11.552C73.2557 10.1886 76.6142 9.5 80.2195 9.5V3.5C75.8248 3.5 71.6501 4.34474 67.7253 6.04796L70.1138 11.552ZM80.2195 9.5H92.0195V3.5H80.2195V9.5ZM92.0195 9.5C95.6987 9.5 99.0897 10.1913 102.225 11.552L104.614 6.04796C100.683 4.34202 96.4737 3.5 92.0195 3.5V9.5ZM102.225 11.552C105.413 12.9356 108.153 14.8163 110.472 17.1943L114.768 13.0057C111.886 10.0503 108.492 7.73108 104.614 6.04796L102.225 11.552ZM110.525 17.248C112.894 19.5572 114.774 22.3218 116.159 25.5756L121.68 23.2244C119.999 19.2782 117.679 15.8428 114.714 12.952L110.525 17.248ZM116.168 25.5943C117.531 28.7361 118.22 32.0947 118.22 35.7H124.22C124.22 31.3053 123.375 27.1305 121.672 23.2057L116.168 25.5943ZM118.22 35.7V50.3H124.22V35.7H118.22ZM118.22 50.3C118.22 53.9052 117.531 57.3045 116.159 60.5244L121.68 62.8756C123.375 58.8955 124.22 54.6948 124.22 50.3H118.22ZM116.168 60.5057C114.781 63.7007 112.893 66.4844 110.498 68.8787L114.741 73.1213C117.68 70.1823 119.991 66.766 121.672 62.8943L116.168 60.5057ZM110.498 68.8787C108.177 71.1995 105.429 73.0575 102.225 74.448L104.614 79.952C108.476 78.2758 111.862 76.0005 114.741 73.1213L110.498 68.8787ZM102.225 74.448C99.0897 75.8087 95.6987 76.5 92.0195 76.5V82.5C96.4737 82.5 100.683 81.658 104.614 79.952L102.225 74.448ZM92.0195 76.5H80.2195V82.5H92.0195V76.5ZM80.2195 59.2H92.0195V53.2H80.2195V59.2ZM92.0195 59.2C94.4167 59.2 96.546 58.3162 98.2409 56.6213L93.9982 52.3787C93.4264 52.9505 92.8223 53.2 92.0195 53.2V59.2ZM98.2409 56.6213C99.9613 54.9008 100.82 52.7269 100.82 50.3H94.8195C94.8195 51.2064 94.5444 51.8325 93.9982 52.3787L98.2409 56.6213ZM100.82 50.3V35.7H94.8195V50.3H100.82ZM100.82 35.7C100.82 33.2731 99.9613 31.0992 98.2409 29.3787L93.9982 33.6213C94.5444 34.1675 94.8195 34.7936 94.8195 35.7H100.82ZM98.2409 29.3787C96.546 27.6838 94.4167 26.8 92.0195 26.8V32.8C92.8223 32.8 93.4264 33.0495 93.9982 33.6213L98.2409 29.3787ZM92.0195 26.8H80.2195V32.8H92.0195V26.8ZM80.2195 26.8C77.8223 26.8 75.6931 27.6838 73.9982 29.3787L78.2409 33.6213C78.8127 33.0495 79.4167 32.8 80.2195 32.8V26.8ZM73.9982 29.3787C72.2777 31.0992 71.4195 33.2731 71.4195 35.7H77.4195C77.4195 34.7936 77.6947 34.1675 78.2409 33.6213L73.9982 29.3787ZM71.4195 35.7V50.3H77.4195V35.7H71.4195ZM71.4195 50.3C71.4195 52.7269 72.2777 54.9008 73.9982 56.6213L78.2409 52.3787C77.6947 51.8325 77.4195 51.2064 77.4195 50.3H71.4195ZM73.9982 56.6213C75.6931 58.3162 77.8223 59.2 80.2195 59.2V53.2C79.4167 53.2 78.8127 52.9505 78.2409 52.3787L73.9982 56.6213Z" fill="#22ADAA"/>
</g>
<defs>
<filter id="filter0_d_79_1171" x="0" y="0.5" width="134.22" height="93" filterUnits="userSpaceOnUse" color-interpolation-filters="sRGB">
<feFlood flood-opacity="0" result="BackgroundImageFix"/>
<feColorMatrix in="SourceAlpha" type="matrix" values="0 0 0 0 0 0 0 0 0 0 0 0 0 0 0 0 0 0 127 0" result="hardAlpha"/>
<feOffset dx="3" dy="4"/>
<feGaussianBlur stdDeviation="5"/>
<feComposite in2="hardAlpha" operator="out"/>
<feColorMatrix type="matrix" values="0 0 0 0 0 0 0 0 0 0 0 0 0 0 0 0 0 0 0.25 0"/>
<feBlend mode="normal" in2="BackgroundImageFix" result="effect1_dropShadow_79_1171"/>
<feBlend mode="normal" in="SourceGraphic" in2="effect1_dropShadow_79_1171" result="shape"/>
</filter>
</defs>
</svg>
