<svg width="90" height="92" viewBox="0 0 90 92" fill="none" xmlns="http://www.w3.org/2000/svg">
<g filter="url(#filter0_d_79_1163)">
<path d="M14.8 45.6L12.8757 43.2984L12.8703 43.303L12.8648 43.3076L14.8 45.6ZM29.3 38.3L30.0601 41.2021L30.0718 41.199L30.0836 41.1959L29.3 38.3ZM49.3 35.6L49.4043 38.5982L49.4354 38.5971L49.4664 38.5954L49.3 35.6ZM52.3 34.3L54.4213 36.4213L52.3 34.3ZM52.3 28.2L54.4213 26.0787L52.3 28.2ZM31.7 28.1L29.7476 25.8222L29.7057 25.8582L29.6652 25.8956L31.7 28.1ZM30.4 31.3V34.3H33.4V31.3H30.4ZM7.1 31.3H4.1V34.3H7.1V31.3ZM8.9 20.8L6.15594 19.5875L6.14917 19.6028L6.14257 19.6182L8.9 20.8ZM13.9 13.4L11.7787 11.2787L11.7787 11.2787L13.9 13.4ZM21.3 8.4L22.4818 11.1574L22.4972 11.1508L22.5125 11.1441L21.3 8.4ZM62.6 8.4L61.3635 11.1333L61.4023 11.1509L61.4416 11.1673L62.6 8.4ZM70 13.4L67.8453 15.4874L67.8784 15.5216L67.9126 15.5547L70 13.4ZM75 20.8L72.2327 21.9584L72.2491 21.9977L72.2667 22.0365L75 20.8ZM75.1 39.7L72.3531 38.494L72.3406 38.5224L72.3288 38.551L75.1 39.7ZM70.3 46.5L72.2648 48.7671L72.2703 48.7622L70.3 46.5ZM63 50.4L63.8064 53.2896L63.8374 53.2809L63.8682 53.2716L63 50.4ZM40.9 51.9L41.2439 54.8802L40.9 51.9ZM36.1 52.9L36.8894 55.7943L36.9499 55.7778L37.0096 55.7588L36.1 52.9ZM31.9 54.7L30.3565 52.1275L21.0691 57.7H31.9V54.7ZM74 54.7H77V51.7H74V54.7ZM74 78V81H77V78H74ZM7.1 78H4.1V81H7.1V78ZM10.1 66.7C10.1 57.4419 12.5368 51.4365 16.7352 47.8924L12.8648 43.3076C6.7965 48.4302 4.1 56.4914 4.1 66.7H10.1ZM16.7243 47.9016C20.4216 44.8104 24.8477 42.5673 30.0601 41.2021L28.5399 35.3979C22.5523 36.9661 17.3118 39.5896 12.8757 43.2984L16.7243 47.9016ZM30.0836 41.1959C35.4729 39.7376 41.9015 38.8592 49.4043 38.5982L49.1957 32.6018C41.3652 32.8742 34.4605 33.7958 28.5164 35.4041L30.0836 41.1959ZM49.4664 38.5954C51.3533 38.4906 53.065 37.7777 54.4213 36.4213L50.1787 32.1787C49.935 32.4223 49.6467 32.5761 49.1336 32.6046L49.4664 38.5954ZM54.4213 36.4213C55.8 35.0426 56.6 33.2978 56.6 31.3H50.6C50.6 31.5689 50.5333 31.824 50.1787 32.1787L54.4213 36.4213ZM56.6 31.3C56.6 29.2855 55.8371 27.4945 54.4213 26.0787L50.1787 30.3213C50.4962 30.6389 50.6 30.9145 50.6 31.3H56.6ZM54.4213 26.0787C53.0426 24.7 51.2978 23.9 49.3 23.9V29.9C49.5689 29.9 49.824 29.9667 50.1787 30.3213L54.4213 26.0787ZM49.3 23.9H34.7V29.9H49.3V23.9ZM34.7 23.9C32.8095 23.9 31.1369 24.6314 29.7476 25.8222L33.6524 30.3778C34.1298 29.9686 34.4572 29.9 34.7 29.9V23.9ZM29.6652 25.8956C28.0999 27.3405 27.4 29.25 27.4 31.3H33.4C33.4 30.6833 33.5668 30.4595 33.7348 30.3044L29.6652 25.8956ZM30.4 28.3H7.1V34.3H30.4V28.3ZM10.1 31.3V29.8H4.1V31.3H10.1ZM10.1 29.8C10.1 26.9854 10.6255 24.3896 11.6574 21.9818L6.14257 19.6182C4.7745 22.8104 4.1 26.2146 4.1 29.8H10.1ZM11.6441 22.0125C12.7719 19.4599 14.235 17.3077 16.0213 15.5213L11.7787 11.2787C9.43168 13.6257 7.5614 16.4067 6.15594 19.5875L11.6441 22.0125ZM16.0213 15.5213C17.8821 13.6605 20.0291 12.2086 22.4818 11.1574L20.1182 5.64256C16.9709 6.99141 14.1846 8.87279 11.7787 11.2787L16.0213 15.5213ZM22.5125 11.1441C24.989 10.0498 27.6085 9.5 30.4 9.5V3.5C26.7915 3.5 23.3443 4.21689 20.0875 5.65594L22.5125 11.1441ZM30.4 9.5H53.6V3.5H30.4V9.5ZM53.6 9.5C56.3916 9.5 58.9681 10.0497 61.3635 11.1333L63.8365 5.66667C60.6319 4.21696 57.2084 3.5 53.6 3.5V9.5ZM61.4416 11.1673C63.9512 12.2179 66.0743 13.6593 67.8453 15.4874L72.1547 11.3126C69.7924 8.87406 66.9821 6.98213 63.7584 5.63267L61.4416 11.1673ZM67.9126 15.5547C69.7407 17.3257 71.1821 19.4488 72.2327 21.9584L77.7673 19.6416C76.4179 16.4179 74.5259 13.6076 72.0874 11.2453L67.9126 15.5547ZM72.2667 22.0365C73.3503 24.4319 73.9 27.0084 73.9 29.8H79.9C79.9 26.1916 79.183 22.7681 77.7333 19.5635L72.2667 22.0365ZM73.9 29.8C73.9 33.3689 73.3447 36.2353 72.3531 38.494L77.8469 40.906C79.2553 37.698 79.9 33.9644 79.9 29.8H73.9ZM72.3288 38.551C71.3585 40.8912 70.0197 42.7658 68.3297 44.2378L72.2703 48.7622C74.7137 46.6342 76.5749 43.9755 77.8712 40.849L72.3288 38.551ZM68.3352 44.2329C66.6936 45.6557 64.6477 46.7678 62.1318 47.5284L63.8682 53.2716C67.0857 52.2989 69.9064 50.811 72.2648 48.7671L68.3352 44.2329ZM62.1936 47.5104C59.6237 48.2276 56.7654 48.6 53.6 48.6V54.6C57.2346 54.6 60.643 54.1724 63.8064 53.2896L62.1936 47.5104ZM53.6 48.6C53.5951 48.6 53.5901 48.6 53.5852 48.6C53.5802 48.6 53.5753 48.6 53.5703 48.6C53.5654 48.6 53.5604 48.6 53.5555 48.6C53.5505 48.6 53.5456 48.6 53.5407 48.6C53.5357 48.6 53.5308 48.6 53.5258 48.6C53.5209 48.6 53.516 48.6 53.511 48.6C53.5061 48.6 53.5011 48.6 53.4962 48.6C53.4913 48.6 53.4863 48.6 53.4814 48.6C53.4765 48.6 53.4715 48.6 53.4666 48.6C53.4617 48.6 53.4567 48.6 53.4518 48.6C53.4469 48.6 53.4419 48.6 53.437 48.6C53.4321 48.6 53.4271 48.6 53.4222 48.6C53.4173 48.6 53.4123 48.6 53.4074 48.6C53.4025 48.6 53.3976 48.6 53.3926 48.6C53.3877 48.6 53.3828 48.6 53.3779 48.6C53.3729 48.6 53.368 48.6 53.3631 48.6C53.3582 48.6 53.3532 48.6 53.3483 48.6C53.3434 48.6 53.3385 48.6 53.3336 48.6C53.3286 48.6 53.3237 48.6 53.3188 48.6C53.3139 48.6 53.309 48.6 53.304 48.6C53.2991 48.6 53.2942 48.6 53.2893 48.6C53.2844 48.6 53.2795 48.6 53.2745 48.6C53.2696 48.6 53.2647 48.6 53.2598 48.6C53.2549 48.6 53.25 48.6 53.2451 48.6C53.2402 48.6 53.2352 48.6 53.2303 48.6C53.2254 48.6 53.2205 48.6 53.2156 48.6C53.2107 48.6 53.2058 48.6 53.2009 48.6C53.196 48.6 53.1911 48.6 53.1862 48.6C53.1813 48.6 53.1764 48.6 53.1715 48.6C53.1666 48.6 53.1617 48.6 53.1567 48.6C53.1518 48.6 53.1469 48.6 53.142 48.6C53.1371 48.6 53.1322 48.6 53.1273 48.6C53.1224 48.6 53.1175 48.6 53.1127 48.6C53.1078 48.6 53.1029 48.6 53.098 48.6C53.0931 48.6 53.0882 48.6 53.0833 48.6C53.0784 48.6 53.0735 48.6 53.0686 48.6C53.0637 48.6 53.0588 48.6 53.0539 48.6C53.049 48.6 53.0441 48.6 53.0392 48.6C53.0344 48.6 53.0295 48.6 53.0246 48.6C53.0197 48.6 53.0148 48.6 53.0099 48.6C53.005 48.6 53.0001 48.6 52.9953 48.6C52.9904 48.6 52.9855 48.6 52.9806 48.6C52.9757 48.6 52.9708 48.6 52.966 48.6C52.9611 48.6 52.9562 48.6 52.9513 48.6C52.9464 48.6 52.9415 48.6 52.9367 48.6C52.9318 48.6 52.9269 48.6 52.922 48.6C52.9172 48.6 52.9123 48.6 52.9074 48.6C52.9025 48.6 52.8977 48.6 52.8928 48.6C52.8879 48.6 52.883 48.6 52.8782 48.6C52.8733 48.6 52.8684 48.6 52.8635 48.6C52.8587 48.6 52.8538 48.6 52.8489 48.6C52.8441 48.6 52.8392 48.6 52.8343 48.6C52.8294 48.6 52.8246 48.6 52.8197 48.6C52.8148 48.6 52.81 48.6 52.8051 48.6C52.8002 48.6 52.7954 48.6 52.7905 48.6C52.7857 48.6 52.7808 48.6 52.7759 48.6C52.7711 48.6 52.7662 48.6 52.7613 48.6C52.7565 48.6 52.7516 48.6 52.7468 48.6C52.7419 48.6 52.737 48.6 52.7322 48.6C52.7273 48.6 52.7225 48.6 52.7176 48.6C52.7128 48.6 52.7079 48.6 52.7031 48.6C52.6982 48.6 52.6933 48.6 52.6885 48.6C52.6836 48.6 52.6788 48.6 52.6739 48.6C52.6691 48.6 52.6642 48.6 52.6594 48.6C52.6545 48.6 52.6497 48.6 52.6448 48.6C52.64 48.6 52.6351 48.6 52.6303 48.6C52.6254 48.6 52.6206 48.6 52.6157 48.6C52.6109 48.6 52.6061 48.6 52.6012 48.6C52.5964 48.6 52.5915 48.6 52.5867 48.6C52.5818 48.6 52.577 48.6 52.5722 48.6C52.5673 48.6 52.5625 48.6 52.5576 48.6C52.5528 48.6 52.548 48.6 52.5431 48.6C52.5383 48.6 52.5334 48.6 52.5286 48.6C52.5238 48.6 52.5189 48.6 52.5141 48.6C52.5093 48.6 52.5044 48.6 52.4996 48.6C52.4948 48.6 52.4899 48.6 52.4851 48.6C52.4803 48.6 52.4754 48.6 52.4706 48.6C52.4658 48.6 52.4609 48.6 52.4561 48.6C52.4513 48.6 52.4465 48.6 52.4416 48.6C52.4368 48.6 52.432 48.6 52.4272 48.6C52.4223 48.6 52.4175 48.6 52.4127 48.6C52.4079 48.6 52.403 48.6 52.3982 48.6C52.3934 48.6 52.3886 48.6 52.3837 48.6C52.3789 48.6 52.3741 48.6 52.3693 48.6C52.3645 48.6 52.3596 48.6 52.3548 48.6C52.35 48.6 52.3452 48.6 52.3404 48.6C52.3356 48.6 52.3307 48.6 52.3259 48.6C52.3211 48.6 52.3163 48.6 52.3115 48.6C52.3067 48.6 52.3018 48.6 52.297 48.6C52.2922 48.6 52.2874 48.6 52.2826 48.6C52.2778 48.6 52.273 48.6 52.2682 48.6C52.2634 48.6 52.2586 48.6 52.2537 48.6C52.2489 48.6 52.2441 48.6 52.2393 48.6C52.2345 48.6 52.2297 48.6 52.2249 48.6C52.2201 48.6 52.2153 48.6 52.2105 48.6C52.2057 48.6 52.2009 48.6 52.1961 48.6C52.1913 48.6 52.1865 48.6 52.1817 48.6C52.1769 48.6 52.1721 48.6 52.1673 48.6C52.1625 48.6 52.1577 48.6 52.1529 48.6C52.1481 48.6 52.1433 48.6 52.1385 48.6C52.1337 48.6 52.1289 48.6 52.1241 48.6C52.1193 48.6 52.1145 48.6 52.1098 48.6C52.105 48.6 52.1002 48.6 52.0954 48.6C52.0906 48.6 52.0858 48.6 52.081 48.6C52.0762 48.6 52.0714 48.6 52.0666 48.6C52.0619 48.6 52.0571 48.6 52.0523 48.6C52.0475 48.6 52.0427 48.6 52.0379 48.6C52.0331 48.6 52.0284 48.6 52.0236 48.6C52.0188 48.6 52.014 48.6 52.0092 48.6C52.0044 48.6 51.9997 48.6 51.9949 48.6C51.9901 48.6 51.9853 48.6 51.9805 48.6C51.9758 48.6 51.971 48.6 51.9662 48.6C51.9614 48.6 51.9567 48.6 51.9519 48.6C51.9471 48.6 51.9423 48.6 51.9376 48.6C51.9328 48.6 51.928 48.6 51.9232 48.6C51.9185 48.6 51.9137 48.6 51.9089 48.6C51.9042 48.6 51.8994 48.6 51.8946 48.6C51.8898 48.6 51.8851 48.6 51.8803 48.6C51.8755 48.6 51.8708 48.6 51.866 48.6C51.8612 48.6 51.8565 48.6 51.8517 48.6C51.8469 48.6 51.8422 48.6 51.8374 48.6C51.8327 48.6 51.8279 48.6 51.8231 48.6C51.8184 48.6 51.8136 48.6 51.8088 48.6C51.8041 48.6 51.7993 48.6 51.7946 48.6C51.7898 48.6 51.7851 48.6 51.7803 48.6C51.7755 48.6 51.7708 48.6 51.766 48.6C51.7613 48.6 51.7565 48.6 51.7518 48.6C51.747 48.6 51.7423 48.6 51.7375 48.6C51.7327 48.6 51.728 48.6 51.7232 48.6C51.7185 48.6 51.7137 48.6 51.709 48.6C51.7042 48.6 51.6995 48.6 51.6947 48.6C51.69 48.6 51.6853 48.6 51.6805 48.6C51.6758 48.6 51.671 48.6 51.6663 48.6C51.6615 48.6 51.6568 48.6 51.652 48.6C51.6473 48.6 51.6426 48.6 51.6378 48.6C51.6331 48.6 51.6283 48.6 51.6236 48.6C51.6188 48.6 51.6141 48.6 51.6094 48.6C51.6046 48.6 51.5999 48.6 51.5952 48.6C51.5904 48.6 51.5857 48.6 51.5809 48.6C51.5762 48.6 51.5715 48.6 51.5667 48.6C51.562 48.6 51.5573 48.6 51.5525 48.6C51.5478 48.6 51.5431 48.6 51.5383 48.6C51.5336 48.6 51.5289 48.6 51.5242 48.6C51.5194 48.6 51.5147 48.6 51.51 48.6C51.5052 48.6 51.5005 48.6 51.4958 48.6C51.4911 48.6 51.4863 48.6 51.4816 48.6C51.4769 48.6 51.4722 48.6 51.4674 48.6C51.4627 48.6 51.458 48.6 51.4533 48.6C51.4485 48.6 51.4438 48.6 51.4391 48.6C51.4344 48.6 51.4297 48.6 51.4249 48.6C51.4202 48.6 51.4155 48.6 51.4108 48.6C51.4061 48.6 51.4013 48.6 51.3966 48.6C51.3919 48.6 51.3872 48.6 51.3825 48.6C51.3778 48.6 51.3731 48.6 51.3683 48.6C51.3636 48.6 51.3589 48.6 51.3542 48.6C51.3495 48.6 51.3448 48.6 51.3401 48.6C51.3354 48.6 51.3307 48.6 51.326 48.6C51.3212 48.6 51.3165 48.6 51.3118 48.6C51.3071 48.6 51.3024 48.6 51.2977 48.6C51.293 48.6 51.2883 48.6 51.2836 48.6C51.2789 48.6 51.2742 48.6 51.2695 48.6C51.2648 48.6 51.2601 48.6 51.2554 48.6C51.2507 48.6 51.246 48.6 51.2413 48.6C51.2366 48.6 51.2319 48.6 51.2272 48.6C51.2225 48.6 51.2178 48.6 51.2131 48.6C51.2084 48.6 51.2037 48.6 51.199 48.6C51.1943 48.6 51.1896 48.6 51.1849 48.6C51.1802 48.6 51.1755 48.6 51.1709 48.6C51.1662 48.6 51.1615 48.6 51.1568 48.6C51.1521 48.6 51.1474 48.6 51.1427 48.6C51.138 48.6 51.1333 48.6 51.1286 48.6C51.124 48.6 51.1193 48.6 51.1146 48.6C51.1099 48.6 51.1052 48.6 51.1005 48.6C51.0959 48.6 51.0912 48.6 51.0865 48.6C51.0818 48.6 51.0771 48.6 51.0724 48.6C51.0678 48.6 51.0631 48.6 51.0584 48.6C51.0537 48.6 51.049 48.6 51.0444 48.6C51.0397 48.6 51.035 48.6 51.0303 48.6C51.0257 48.6 51.021 48.6 51.0163 48.6C51.0116 48.6 51.007 48.6 51.0023 48.6C50.9976 48.6 50.9929 48.6 50.9883 48.6C50.9836 48.6 50.9789 48.6 50.9743 48.6C50.9696 48.6 50.9649 48.6 50.9602 48.6C50.9556 48.6 50.9509 48.6 50.9462 48.6C50.9416 48.6 50.9369 48.6 50.9322 48.6C50.9276 48.6 50.9229 48.6 50.9182 48.6C50.9136 48.6 50.9089 48.6 50.9043 48.6C50.8996 48.6 50.8949 48.6 50.8903 48.6C50.8856 48.6 50.881 48.6 50.8763 48.6C50.8716 48.6 50.867 48.6 50.8623 48.6C50.8577 48.6 50.853 48.6 50.8483 48.6C50.8437 48.6 50.839 48.6 50.8344 48.6C50.8297 48.6 50.8251 48.6 50.8204 48.6C50.8158 48.6 50.8111 48.6 50.8065 48.6C50.8018 48.6 50.7972 48.6 50.7925 48.6C50.7879 48.6 50.7832 48.6 50.7786 48.6C50.7739 48.6 50.7693 48.6 50.7646 48.6C50.76 48.6 50.7553 48.6 50.7507 48.6C50.746 48.6 50.7414 48.6 50.7367 48.6C50.7321 48.6 50.7274 48.6 50.7228 48.6C50.7182 48.6 50.7135 48.6 50.7089 48.6C50.7042 48.6 50.6996 48.6 50.695 48.6C50.6903 48.6 50.6857 48.6 50.681 48.6C50.6764 48.6 50.6718 48.6 50.6671 48.6C50.6625 48.6 50.6579 48.6 50.6532 48.6C50.6486 48.6 50.644 48.6 50.6393 48.6C50.6347 48.6 50.6301 48.6 50.6254 48.6C50.6208 48.6 50.6162 48.6 50.6115 48.6C50.6069 48.6 50.6023 48.6 50.5976 48.6C50.593 48.6 50.5884 48.6 50.5838 48.6C50.5791 48.6 50.5745 48.6 50.5699 48.6C50.5652 48.6 50.5606 48.6 50.556 48.6C50.5514 48.6 50.5467 48.6 50.5421 48.6C50.5375 48.6 50.5329 48.6 50.5283 48.6C50.5236 48.6 50.519 48.6 50.5144 48.6C50.5098 48.6 50.5052 48.6 50.5005 48.6C50.4959 48.6 50.4913 48.6 50.4867 48.6C50.4821 48.6 50.4775 48.6 50.4728 48.6C50.4682 48.6 50.4636 48.6 50.459 48.6C50.4544 48.6 50.4498 48.6 50.4452 48.6C50.4405 48.6 50.4359 48.6 50.4313 48.6C50.4267 48.6 50.4221 48.6 50.4175 48.6C50.4129 48.6 50.4083 48.6 50.4037 48.6C50.3991 48.6 50.3945 48.6 50.3898 48.6C50.3852 48.6 50.3806 48.6 50.376 48.6C50.3714 48.6 50.3668 48.6 50.3622 48.6C50.3576 48.6 50.353 48.6 50.3484 48.6C50.3438 48.6 50.3392 48.6 50.3346 48.6C50.33 48.6 50.3254 48.6 50.3208 48.6C50.3162 48.6 50.3116 48.6 50.307 48.6C50.3024 48.6 50.2978 48.6 50.2932 48.6C50.2886 48.6 50.284 48.6 50.2794 48.6C50.2749 48.6 50.2703 48.6 50.2657 48.6C50.2611 48.6 50.2565 48.6 50.2519 48.6C50.2473 48.6 50.2427 48.6 50.2381 48.6C50.2335 48.6 50.2289 48.6 50.2244 48.6C50.2198 48.6 50.2152 48.6 50.2106 48.6C50.206 48.6 50.2014 48.6 50.1968 48.6C50.1923 48.6 50.1877 48.6 50.1831 48.6C50.1785 48.6 50.1739 48.6 50.1693 48.6C50.1648 48.6 50.1602 48.6 50.1556 48.6C50.151 48.6 50.1464 48.6 50.1419 48.6C50.1373 48.6 50.1327 48.6 50.1281 48.6C50.1235 48.6 50.119 48.6 50.1144 48.6C50.1098 48.6 50.1052 48.6 50.1007 48.6C50.0961 48.6 50.0915 48.6 50.0869 48.6C50.0824 48.6 50.0778 48.6 50.0732 48.6C50.0687 48.6 50.0641 48.6 50.0595 48.6C50.055 48.6 50.0504 48.6 50.0458 48.6C50.0412 48.6 50.0367 48.6 50.0321 48.6C50.0275 48.6 50.023 48.6 50.0184 48.6C50.0139 48.6 50.0093 48.6 50.0047 48.6C50.0002 48.6 49.9956 48.6 49.991 48.6C49.9865 48.6 49.9819 48.6 49.9774 48.6C49.9728 48.6 49.9682 48.6 49.9637 48.6C49.9591 48.6 49.9546 48.6 49.95 48.6C49.9454 48.6 49.9409 48.6 49.9363 48.6C49.9318 48.6 49.9272 48.6 49.9227 48.6C49.9181 48.6 49.9136 48.6 49.909 48.6C49.9045 48.6 49.8999 48.6 49.8954 48.6C49.8908 48.6 49.8862 48.6 49.8817 48.6C49.8772 48.6 49.8726 48.6 49.8681 48.6C49.8635 48.6 49.859 48.6 49.8544 48.6C49.8499 48.6 49.8453 48.6 49.8408 48.6C49.8362 48.6 49.8317 48.6 49.8271 48.6C49.8226 48.6 49.8181 48.6 49.8135 48.6C49.809 48.6 49.8044 48.6 49.7999 48.6C49.7953 48.6 49.7908 48.6 49.7863 48.6C49.7817 48.6 49.7772 48.6 49.7727 48.6C49.7681 48.6 49.7636 48.6 49.759 48.6C49.7545 48.6 49.75 48.6 49.7454 48.6C49.7409 48.6 49.7364 48.6 49.7318 48.6C49.7273 48.6 49.7228 48.6 49.7182 48.6C49.7137 48.6 49.7092 48.6 49.7047 48.6C49.7001 48.6 49.6956 48.6 49.6911 48.6C49.6865 48.6 49.682 48.6 49.6775 48.6C49.673 48.6 49.6684 48.6 49.6639 48.6C49.6594 48.6 49.6549 48.6 49.6503 48.6C49.6458 48.6 49.6413 48.6 49.6368 48.6C49.6322 48.6 49.6277 48.6 49.6232 48.6C49.6187 48.6 49.6142 48.6 49.6096 48.6C49.6051 48.6 49.6006 48.6 49.5961 48.6C49.5916 48.6 49.587 48.6 49.5825 48.6C49.578 48.6 49.5735 48.6 49.569 48.6C49.5645 48.6 49.56 48.6 49.5554 48.6C49.5509 48.6 49.5464 48.6 49.5419 48.6C49.5374 48.6 49.5329 48.6 49.5284 48.6C49.5239 48.6 49.5194 48.6 49.5148 48.6C49.5103 48.6 49.5058 48.6 49.5013 48.6C49.4968 48.6 49.4923 48.6 49.4878 48.6C49.4833 48.6 49.4788 48.6 49.4743 48.6C49.4698 48.6 49.4653 48.6 49.4608 48.6C49.4563 48.6 49.4518 48.6 49.4473 48.6C49.4428 48.6 49.4383 48.6 49.4338 48.6C49.4293 48.6 49.4248 48.6 49.4203 48.6C49.4158 48.6 49.4113 48.6 49.4068 48.6C49.4023 48.6 49.3978 48.6 49.3933 48.6C49.3888 48.6 49.3843 48.6 49.3798 48.6C49.3753 48.6 49.3708 48.6 49.3663 48.6C49.3619 48.6 49.3574 48.6 49.3529 48.6C49.3484 48.6 49.3439 48.6 49.3394 48.6C49.3349 48.6 49.3304 48.6 49.3259 48.6C49.3215 48.6 49.317 48.6 49.3125 48.6C49.308 48.6 49.3035 48.6 49.299 48.6C49.2945 48.6 49.2901 48.6 49.2856 48.6C49.2811 48.6 49.2766 48.6 49.2721 48.6C49.2677 48.6 49.2632 48.6 49.2587 48.6C49.2542 48.6 49.2497 48.6 49.2453 48.6C49.2408 48.6 49.2363 48.6 49.2318 48.6C49.2273 48.6 49.2229 48.6 49.2184 48.6C49.2139 48.6 49.2094 48.6 49.205 48.6C49.2005 48.6 49.196 48.6 49.1916 48.6C49.1871 48.6 49.1826 48.6 49.1781 48.6C49.1737 48.6 49.1692 48.6 49.1647 48.6C49.1603 48.6 49.1558 48.6 49.1513 48.6C49.1469 48.6 49.1424 48.6 49.1379 48.6C49.1335 48.6 49.129 48.6 49.1245 48.6C49.1201 48.6 49.1156 48.6 49.1111 48.6C49.1067 48.6 49.1022 48.6 49.0978 48.6C49.0933 48.6 49.0888 48.6 49.0844 48.6C49.0799 48.6 49.0755 48.6 49.071 48.6C49.0665 48.6 49.0621 48.6 49.0576 48.6C49.0532 48.6 49.0487 48.6 49.0443 48.6C49.0398 48.6 49.0354 48.6 49.0309 48.6C49.0264 48.6 49.022 48.6 49.0175 48.6C49.0131 48.6 49.0086 48.6 49.0042 48.6C48.9997 48.6 48.9953 48.6 48.9908 48.6C48.9864 48.6 48.9819 48.6 48.9775 48.6C48.973 48.6 48.9686 48.6 48.9642 48.6C48.9597 48.6 48.9553 48.6 48.9508 48.6C48.9464 48.6 48.9419 48.6 48.9375 48.6C48.933 48.6 48.9286 48.6 48.9242 48.6C48.9197 48.6 48.9153 48.6 48.9108 48.6C48.9064 48.6 48.902 48.6 48.8975 48.6C48.8931 48.6 48.8886 48.6 48.8842 48.6C48.8798 48.6 48.8753 48.6 48.8709 48.6C48.8665 48.6 48.862 48.6 48.8576 48.6C48.8532 48.6 48.8487 48.6 48.8443 48.6C48.8399 48.6 48.8354 48.6 48.831 48.6C48.8266 48.6 48.8221 48.6 48.8177 48.6C48.8133 48.6 48.8089 48.6 48.8044 48.6C48.8 48.6 48.7956 48.6 48.7911 48.6C48.7867 48.6 48.7823 48.6 48.7779 48.6C48.7734 48.6 48.769 48.6 48.7646 48.6C48.7602 48.6 48.7558 48.6 48.7513 48.6C48.7469 48.6 48.7425 48.6 48.7381 48.6C48.7337 48.6 48.7292 48.6 48.7248 48.6C48.7204 48.6 48.716 48.6 48.7116 48.6C48.7071 48.6 48.7027 48.6 48.6983 48.6C48.6939 48.6 48.6895 48.6 48.6851 48.6C48.6807 48.6 48.6762 48.6 48.6718 48.6C48.6674 48.6 48.663 48.6 48.6586 48.6C48.6542 48.6 48.6498 48.6 48.6454 48.6C48.641 48.6 48.6365 48.6 48.6321 48.6C48.6277 48.6 48.6233 48.6 48.6189 48.6C48.6145 48.6 48.6101 48.6 48.6057 48.6C48.6013 48.6 48.5969 48.6 48.5925 48.6C48.5881 48.6 48.5837 48.6 48.5793 48.6C48.5749 48.6 48.5705 48.6 48.5661 48.6C48.5617 48.6 48.5573 48.6 48.5529 48.6C48.5485 48.6 48.5441 48.6 48.5397 48.6C48.5353 48.6 48.5309 48.6 48.5265 48.6C48.5221 48.6 48.5177 48.6 48.5133 48.6C48.5089 48.6 48.5045 48.6 48.5001 48.6C48.4957 48.6 48.4914 48.6 48.487 48.6C48.4826 48.6 48.4782 48.6 48.4738 48.6C48.4694 48.6 48.465 48.6 48.4606 48.6C48.4562 48.6 48.4518 48.6 48.4475 48.6C48.4431 48.6 48.4387 48.6 48.4343 48.6C48.4299 48.6 48.4255 48.6 48.4212 48.6C48.4168 48.6 48.4124 48.6 48.408 48.6C48.4036 48.6 48.3992 48.6 48.3949 48.6C48.3905 48.6 48.3861 48.6 48.3817 48.6C48.3773 48.6 48.373 48.6 48.3686 48.6C48.3642 48.6 48.3598 48.6 48.3555 48.6C48.3511 48.6 48.3467 48.6 48.3423 48.6C48.338 48.6 48.3336 48.6 48.3292 48.6C48.3248 48.6 48.3205 48.6 48.3161 48.6C48.3117 48.6 48.3074 48.6 48.303 48.6C48.2986 48.6 48.2943 48.6 48.2899 48.6C48.2855 48.6 48.2811 48.6 48.2768 48.6C48.2724 48.6 48.268 48.6 48.2637 48.6C48.2593 48.6 48.255 48.6 48.2506 48.6C48.2462 48.6 48.2419 48.6 48.2375 48.6C48.2331 48.6 48.2288 48.6 48.2244 48.6C48.2201 48.6 48.2157 48.6 48.2113 48.6C48.207 48.6 48.2026 48.6 48.1983 48.6C48.1939 48.6 48.1895 48.6 48.1852 48.6C48.1808 48.6 48.1765 48.6 48.1721 48.6C48.1678 48.6 48.1634 48.6 48.1591 48.6C48.1547 48.6 48.1504 48.6 48.146 48.6C48.1417 48.6 48.1373 48.6 48.133 48.6C48.1286 48.6 48.1243 48.6 48.1199 48.6C48.1156 48.6 48.1112 48.6 48.1069 48.6C48.1025 48.6 48.0982 48.6 48.0938 48.6C48.0895 48.6 48.0851 48.6 48.0808 48.6C48.0765 48.6 48.0721 48.6 48.0678 48.6C48.0634 48.6 48.0591 48.6 48.0547 48.6C48.0504 48.6 48.0461 48.6 48.0417 48.6C48.0374 48.6 48.0331 48.6 48.0287 48.6C48.0244 48.6 48.02 48.6 48.0157 48.6C48.0114 48.6 48.007 48.6 48.0027 48.6C47.9984 48.6 47.994 48.6 47.9897 48.6C47.9854 48.6 47.981 48.6 47.9767 48.6C47.9724 48.6 47.968 48.6 47.9637 48.6C47.9594 48.6 47.955 48.6 47.9507 48.6C47.9464 48.6 47.9421 48.6 47.9377 48.6C47.9334 48.6 47.9291 48.6 47.9248 48.6C47.9204 48.6 47.9161 48.6 47.9118 48.6C47.9075 48.6 47.9031 48.6 47.8988 48.6C47.8945 48.6 47.8902 48.6 47.8858 48.6C47.8815 48.6 47.8772 48.6 47.8729 48.6C47.8686 48.6 47.8643 48.6 47.8599 48.6C47.8556 48.6 47.8513 48.6 47.847 48.6C47.8427 48.6 47.8384 48.6 47.834 48.6C47.8297 48.6 47.8254 48.6 47.8211 48.6C47.8168 48.6 47.8125 48.6 47.8082 48.6C47.8038 48.6 47.7995 48.6 47.7952 48.6C47.7909 48.6 47.7866 48.6 47.7823 48.6C47.778 48.6 47.7737 48.6 47.7694 48.6C47.7651 48.6 47.7608 48.6 47.7565 48.6C47.7521 48.6 47.7478 48.6 47.7435 48.6C47.7392 48.6 47.7349 48.6 47.7306 48.6C47.7263 48.6 47.722 48.6 47.7177 48.6C47.7134 48.6 47.7091 48.6 47.7048 48.6C47.7005 48.6 47.6962 48.6 47.6919 48.6C47.6876 48.6 47.6833 48.6 47.679 48.6C47.6747 48.6 47.6704 48.6 47.6662 48.6C47.6619 48.6 47.6576 48.6 47.6533 48.6C47.649 48.6 47.6447 48.6 47.6404 48.6C47.6361 48.6 47.6318 48.6 47.6275 48.6C47.6232 48.6 47.6189 48.6 47.6147 48.6C47.6104 48.6 47.6061 48.6 47.6018 48.6C47.5975 48.6 47.5932 48.6 47.5889 48.6C47.5846 48.6 47.5804 48.6 47.5761 48.6C47.5718 48.6 47.5675 48.6 47.5632 48.6C47.5589 48.6 47.5547 48.6 47.5504 48.6C47.5461 48.6 47.5418 48.6 47.5375 48.6C47.5333 48.6 47.529 48.6 47.5247 48.6C47.5204 48.6 47.5161 48.6 47.5119 48.6C47.5076 48.6 47.5033 48.6 47.499 48.6C47.4948 48.6 47.4905 48.6 47.4862 48.6C47.4819 48.6 47.4777 48.6 47.4734 48.6C47.4691 48.6 47.4649 48.6 47.4606 48.6C47.4563 48.6 47.452 48.6 47.4478 48.6C47.4435 48.6 47.4392 48.6 47.435 48.6C47.4307 48.6 47.4264 48.6 47.4222 48.6C47.4179 48.6 47.4136 48.6 47.4094 48.6C47.4051 48.6 47.4008 48.6 47.3966 48.6C47.3923 48.6 47.3881 48.6 47.3838 48.6C47.3795 48.6 47.3753 48.6 47.371 48.6C47.3668 48.6 47.3625 48.6 47.3582 48.6C47.354 48.6 47.3497 48.6 47.3455 48.6C47.3412 48.6 47.337 48.6 47.3327 48.6C47.3284 48.6 47.3242 48.6 47.3199 48.6C47.3157 48.6 47.3114 48.6 47.3072 48.6C47.3029 48.6 47.2987 48.6 47.2944 48.6C47.2902 48.6 47.2859 48.6 47.2817 48.6C47.2774 48.6 47.2732 48.6 47.2689 48.6C47.2647 48.6 47.2604 48.6 47.2562 48.6C47.2519 48.6 47.2477 48.6 47.2435 48.6C47.2392 48.6 47.235 48.6 47.2307 48.6C47.2265 48.6 47.2222 48.6 47.218 48.6C47.2138 48.6 47.2095 48.6 47.2053 48.6C47.201 48.6 47.1968 48.6 47.1926 48.6C47.1883 48.6 47.1841 48.6 47.1798 48.6C47.1756 48.6 47.1714 48.6 47.1671 48.6C47.1629 48.6 47.1587 48.6 47.1544 48.6C47.1502 48.6 47.146 48.6 47.1417 48.6C47.1375 48.6 47.1333 48.6 47.129 48.6C47.1248 48.6 47.1206 48.6 47.1163 48.6C47.1121 48.6 47.1079 48.6 47.1037 48.6C47.0994 48.6 47.0952 48.6 47.091 48.6C47.0868 48.6 47.0825 48.6 47.0783 48.6C47.0741 48.6 47.0699 48.6 47.0656 48.6C47.0614 48.6 47.0572 48.6 47.053 48.6C47.0487 48.6 47.0445 48.6 47.0403 48.6C47.0361 48.6 47.0319 48.6 47.0276 48.6C47.0234 48.6 47.0192 48.6 47.015 48.6C47.0108 48.6 47.0066 48.6 47.0023 48.6C46.9981 48.6 46.9939 48.6 46.9897 48.6C46.9855 48.6 46.9813 48.6 46.9771 48.6C46.9728 48.6 46.9686 48.6 46.9644 48.6C46.9602 48.6 46.956 48.6 46.9518 48.6C46.9476 48.6 46.9434 48.6 46.9392 48.6C46.935 48.6 46.9308 48.6 46.9265 48.6C46.9223 48.6 46.9181 48.6 46.9139 48.6C46.9097 48.6 46.9055 48.6 46.9013 48.6C46.8971 48.6 46.8929 48.6 46.8887 48.6C46.8845 48.6 46.8803 48.6 46.8761 48.6C46.8719 48.6 46.8677 48.6 46.8635 48.6C46.8593 48.6 46.8551 48.6 46.8509 48.6C46.8467 48.6 46.8425 48.6 46.8383 48.6C46.8341 48.6 46.8299 48.6 46.8257 48.6C46.8215 48.6 46.8174 48.6 46.8132 48.6C46.809 48.6 46.8048 48.6 46.8006 48.6C46.7964 48.6 46.7922 48.6 46.788 48.6C46.7838 48.6 46.7796 48.6 46.7754 48.6C46.7713 48.6 46.7671 48.6 46.7629 48.6C46.7587 48.6 46.7545 48.6 46.7503 48.6C46.7461 48.6 46.742 48.6 46.7378 48.6C46.7336 48.6 46.7294 48.6 46.7252 48.6C46.721 48.6 46.7169 48.6 46.7127 48.6C46.7085 48.6 46.7043 48.6 46.7001 48.6C46.696 48.6 46.6918 48.6 46.6876 48.6C46.6834 48.6 46.6793 48.6 46.6751 48.6C46.6709 48.6 46.6667 48.6 46.6626 48.6C46.6584 48.6 46.6542 48.6 46.65 48.6C46.6459 48.6 46.6417 48.6 46.6375 48.6C46.6334 48.6 46.6292 48.6 46.625 48.6C46.6208 48.6 46.6167 48.6 46.6125 48.6C46.6083 48.6 46.6042 48.6 46.6 48.6V54.6C46.6042 54.6 46.6083 54.6 46.6125 54.6C46.6167 54.6 46.6208 54.6 46.625 54.6C46.6292 54.6 46.6334 54.6 46.6375 54.6C46.6417 54.6 46.6459 54.6 46.65 54.6C46.6542 54.6 46.6584 54.6 46.6626 54.6C46.6667 54.6 46.6709 54.6 46.6751 54.6C46.6793 54.6 46.6834 54.6 46.6876 54.6C46.6918 54.6 46.696 54.6 46.7001 54.6C46.7043 54.6 46.7085 54.6 46.7127 54.6C46.7169 54.6 46.721 54.6 46.7252 54.6C46.7294 54.6 46.7336 54.6 46.7378 54.6C46.742 54.6 46.7461 54.6 46.7503 54.6C46.7545 54.6 46.7587 54.6 46.7629 54.6C46.7671 54.6 46.7713 54.6 46.7754 54.6C46.7796 54.6 46.7838 54.6 46.788 54.6C46.7922 54.6 46.7964 54.6 46.8006 54.6C46.8048 54.6 46.809 54.6 46.8132 54.6C46.8174 54.6 46.8215 54.6 46.8257 54.6C46.8299 54.6 46.8341 54.6 46.8383 54.6C46.8425 54.6 46.8467 54.6 46.8509 54.6C46.8551 54.6 46.8593 54.6 46.8635 54.6C46.8677 54.6 46.8719 54.6 46.8761 54.6C46.8803 54.6 46.8845 54.6 46.8887 54.6C46.8929 54.6 46.8971 54.6 46.9013 54.6C46.9055 54.6 46.9097 54.6 46.9139 54.6C46.9181 54.6 46.9223 54.6 46.9265 54.6C46.9308 54.6 46.935 54.6 46.9392 54.6C46.9434 54.6 46.9476 54.6 46.9518 54.6C46.956 54.6 46.9602 54.6 46.9644 54.6C46.9686 54.6 46.9728 54.6 46.9771 54.6C46.9813 54.6 46.9855 54.6 46.9897 54.6C46.9939 54.6 46.9981 54.6 47.0023 54.6C47.0066 54.6 47.0108 54.6 47.015 54.6C47.0192 54.6 47.0234 54.6 47.0276 54.6C47.0319 54.6 47.0361 54.6 47.0403 54.6C47.0445 54.6 47.0487 54.6 47.053 54.6C47.0572 54.6 47.0614 54.6 47.0656 54.6C47.0699 54.6 47.0741 54.6 47.0783 54.6C47.0825 54.6 47.0868 54.6 47.091 54.6C47.0952 54.6 47.0994 54.6 47.1037 54.6C47.1079 54.6 47.1121 54.6 47.1163 54.6C47.1206 54.6 47.1248 54.6 47.129 54.6C47.1333 54.6 47.1375 54.6 47.1417 54.6C47.146 54.6 47.1502 54.6 47.1544 54.6C47.1587 54.6 47.1629 54.6 47.1671 54.6C47.1714 54.6 47.1756 54.6 47.1798 54.6C47.1841 54.6 47.1883 54.6 47.1926 54.6C47.1968 54.6 47.201 54.6 47.2053 54.6C47.2095 54.6 47.2138 54.6 47.218 54.6C47.2222 54.6 47.2265 54.6 47.2307 54.6C47.235 54.6 47.2392 54.6 47.2435 54.6C47.2477 54.6 47.2519 54.6 47.2562 54.6C47.2604 54.6 47.2647 54.6 47.2689 54.6C47.2732 54.6 47.2774 54.6 47.2817 54.6C47.2859 54.6 47.2902 54.6 47.2944 54.6C47.2987 54.6 47.3029 54.6 47.3072 54.6C47.3114 54.6 47.3157 54.6 47.3199 54.6C47.3242 54.6 47.3284 54.6 47.3327 54.6C47.337 54.6 47.3412 54.6 47.3455 54.6C47.3497 54.6 47.354 54.6 47.3582 54.6C47.3625 54.6 47.3668 54.6 47.371 54.6C47.3753 54.6 47.3795 54.6 47.3838 54.6C47.3881 54.6 47.3923 54.6 47.3966 54.6C47.4008 54.6 47.4051 54.6 47.4094 54.6C47.4136 54.6 47.4179 54.6 47.4222 54.6C47.4264 54.6 47.4307 54.6 47.435 54.6C47.4392 54.6 47.4435 54.6 47.4478 54.6C47.452 54.6 47.4563 54.6 47.4606 54.6C47.4649 54.6 47.4691 54.6 47.4734 54.6C47.4777 54.6 47.4819 54.6 47.4862 54.6C47.4905 54.6 47.4948 54.6 47.499 54.6C47.5033 54.6 47.5076 54.6 47.5119 54.6C47.5161 54.6 47.5204 54.6 47.5247 54.6C47.529 54.6 47.5333 54.6 47.5375 54.6C47.5418 54.6 47.5461 54.6 47.5504 54.6C47.5547 54.6 47.5589 54.6 47.5632 54.6C47.5675 54.6 47.5718 54.6 47.5761 54.6C47.5804 54.6 47.5846 54.6 47.5889 54.6C47.5932 54.6 47.5975 54.6 47.6018 54.6C47.6061 54.6 47.6104 54.6 47.6147 54.6C47.6189 54.6 47.6232 54.6 47.6275 54.6C47.6318 54.6 47.6361 54.6 47.6404 54.6C47.6447 54.6 47.649 54.6 47.6533 54.6C47.6576 54.6 47.6619 54.6 47.6662 54.6C47.6704 54.6 47.6747 54.6 47.679 54.6C47.6833 54.6 47.6876 54.6 47.6919 54.6C47.6962 54.6 47.7005 54.6 47.7048 54.6C47.7091 54.6 47.7134 54.6 47.7177 54.6C47.722 54.6 47.7263 54.6 47.7306 54.6C47.7349 54.6 47.7392 54.6 47.7435 54.6C47.7478 54.6 47.7521 54.6 47.7565 54.6C47.7608 54.6 47.7651 54.6 47.7694 54.6C47.7737 54.6 47.778 54.6 47.7823 54.6C47.7866 54.6 47.7909 54.6 47.7952 54.6C47.7995 54.6 47.8038 54.6 47.8082 54.6C47.8125 54.6 47.8168 54.6 47.8211 54.6C47.8254 54.6 47.8297 54.6 47.834 54.6C47.8384 54.6 47.8427 54.6 47.847 54.6C47.8513 54.6 47.8556 54.6 47.8599 54.6C47.8643 54.6 47.8686 54.6 47.8729 54.6C47.8772 54.6 47.8815 54.6 47.8858 54.6C47.8902 54.6 47.8945 54.6 47.8988 54.6C47.9031 54.6 47.9075 54.6 47.9118 54.6C47.9161 54.6 47.9204 54.6 47.9248 54.6C47.9291 54.6 47.9334 54.6 47.9377 54.6C47.9421 54.6 47.9464 54.6 47.9507 54.6C47.955 54.6 47.9594 54.6 47.9637 54.6C47.968 54.6 47.9724 54.6 47.9767 54.6C47.981 54.6 47.9854 54.6 47.9897 54.6C47.994 54.6 47.9984 54.6 48.0027 54.6C48.007 54.6 48.0114 54.6 48.0157 54.6C48.02 54.6 48.0244 54.6 48.0287 54.6C48.0331 54.6 48.0374 54.6 48.0417 54.6C48.0461 54.6 48.0504 54.6 48.0547 54.6C48.0591 54.6 48.0634 54.6 48.0678 54.6C48.0721 54.6 48.0765 54.6 48.0808 54.6C48.0851 54.6 48.0895 54.6 48.0938 54.6C48.0982 54.6 48.1025 54.6 48.1069 54.6C48.1112 54.6 48.1156 54.6 48.1199 54.6C48.1243 54.6 48.1286 54.6 48.133 54.6C48.1373 54.6 48.1417 54.6 48.146 54.6C48.1504 54.6 48.1547 54.6 48.1591 54.6C48.1634 54.6 48.1678 54.6 48.1721 54.6C48.1765 54.6 48.1808 54.6 48.1852 54.6C48.1895 54.6 48.1939 54.6 48.1983 54.6C48.2026 54.6 48.207 54.6 48.2113 54.6C48.2157 54.6 48.2201 54.6 48.2244 54.6C48.2288 54.6 48.2331 54.6 48.2375 54.6C48.2419 54.6 48.2462 54.6 48.2506 54.6C48.255 54.6 48.2593 54.6 48.2637 54.6C48.268 54.6 48.2724 54.6 48.2768 54.6C48.2811 54.6 48.2855 54.6 48.2899 54.6C48.2943 54.6 48.2986 54.6 48.303 54.6C48.3074 54.6 48.3117 54.6 48.3161 54.6C48.3205 54.6 48.3248 54.6 48.3292 54.6C48.3336 54.6 48.338 54.6 48.3423 54.6C48.3467 54.6 48.3511 54.6 48.3555 54.6C48.3598 54.6 48.3642 54.6 48.3686 54.6C48.373 54.6 48.3773 54.6 48.3817 54.6C48.3861 54.6 48.3905 54.6 48.3949 54.6C48.3992 54.6 48.4036 54.6 48.408 54.6C48.4124 54.6 48.4168 54.6 48.4212 54.6C48.4255 54.6 48.4299 54.6 48.4343 54.6C48.4387 54.6 48.4431 54.6 48.4475 54.6C48.4518 54.6 48.4562 54.6 48.4606 54.6C48.465 54.6 48.4694 54.6 48.4738 54.6C48.4782 54.6 48.4826 54.6 48.487 54.6C48.4914 54.6 48.4957 54.6 48.5001 54.6C48.5045 54.6 48.5089 54.6 48.5133 54.6C48.5177 54.6 48.5221 54.6 48.5265 54.6C48.5309 54.6 48.5353 54.6 48.5397 54.6C48.5441 54.6 48.5485 54.6 48.5529 54.6C48.5573 54.6 48.5617 54.6 48.5661 54.6C48.5705 54.6 48.5749 54.6 48.5793 54.6C48.5837 54.6 48.5881 54.6 48.5925 54.6C48.5969 54.6 48.6013 54.6 48.6057 54.6C48.6101 54.6 48.6145 54.6 48.6189 54.6C48.6233 54.6 48.6277 54.6 48.6321 54.6C48.6365 54.6 48.641 54.6 48.6454 54.6C48.6498 54.6 48.6542 54.6 48.6586 54.6C48.663 54.6 48.6674 54.6 48.6718 54.6C48.6762 54.6 48.6807 54.6 48.6851 54.6C48.6895 54.6 48.6939 54.6 48.6983 54.6C48.7027 54.6 48.7071 54.6 48.7116 54.6C48.716 54.6 48.7204 54.6 48.7248 54.6C48.7292 54.6 48.7337 54.6 48.7381 54.6C48.7425 54.6 48.7469 54.6 48.7513 54.6C48.7558 54.6 48.7602 54.6 48.7646 54.6C48.769 54.6 48.7734 54.6 48.7779 54.6C48.7823 54.6 48.7867 54.6 48.7911 54.6C48.7956 54.6 48.8 54.6 48.8044 54.6C48.8089 54.6 48.8133 54.6 48.8177 54.6C48.8221 54.6 48.8266 54.6 48.831 54.6C48.8354 54.6 48.8399 54.6 48.8443 54.6C48.8487 54.6 48.8532 54.6 48.8576 54.6C48.862 54.6 48.8665 54.6 48.8709 54.6C48.8753 54.6 48.8798 54.6 48.8842 54.6C48.8886 54.6 48.8931 54.6 48.8975 54.6C48.902 54.6 48.9064 54.6 48.9108 54.6C48.9153 54.6 48.9197 54.6 48.9242 54.6C48.9286 54.6 48.933 54.6 48.9375 54.6C48.9419 54.6 48.9464 54.6 48.9508 54.6C48.9553 54.6 48.9597 54.6 48.9642 54.6C48.9686 54.6 48.973 54.6 48.9775 54.6C48.9819 54.6 48.9864 54.6 48.9908 54.6C48.9953 54.6 48.9997 54.6 49.0042 54.6C49.0086 54.6 49.0131 54.6 49.0175 54.6C49.022 54.6 49.0264 54.6 49.0309 54.6C49.0354 54.6 49.0398 54.6 49.0443 54.6C49.0487 54.6 49.0532 54.6 49.0576 54.6C49.0621 54.6 49.0665 54.6 49.071 54.6C49.0755 54.6 49.0799 54.6 49.0844 54.6C49.0888 54.6 49.0933 54.6 49.0978 54.6C49.1022 54.6 49.1067 54.6 49.1111 54.6C49.1156 54.6 49.1201 54.6 49.1245 54.6C49.129 54.6 49.1335 54.6 49.1379 54.6C49.1424 54.6 49.1469 54.6 49.1513 54.6C49.1558 54.6 49.1603 54.6 49.1647 54.6C49.1692 54.6 49.1737 54.6 49.1781 54.6C49.1826 54.6 49.1871 54.6 49.1916 54.6C49.196 54.6 49.2005 54.6 49.205 54.6C49.2094 54.6 49.2139 54.6 49.2184 54.6C49.2229 54.6 49.2273 54.6 49.2318 54.6C49.2363 54.6 49.2408 54.6 49.2453 54.6C49.2497 54.6 49.2542 54.6 49.2587 54.6C49.2632 54.6 49.2677 54.6 49.2721 54.6C49.2766 54.6 49.2811 54.6 49.2856 54.6C49.2901 54.6 49.2945 54.6 49.299 54.6C49.3035 54.6 49.308 54.6 49.3125 54.6C49.317 54.6 49.3215 54.6 49.3259 54.6C49.3304 54.6 49.3349 54.6 49.3394 54.6C49.3439 54.6 49.3484 54.6 49.3529 54.6C49.3574 54.6 49.3619 54.6 49.3663 54.6C49.3708 54.6 49.3753 54.6 49.3798 54.6C49.3843 54.6 49.3888 54.6 49.3933 54.6C49.3978 54.6 49.4023 54.6 49.4068 54.6C49.4113 54.6 49.4158 54.6 49.4203 54.6C49.4248 54.6 49.4293 54.6 49.4338 54.6C49.4383 54.6 49.4428 54.6 49.4473 54.6C49.4518 54.6 49.4563 54.6 49.4608 54.6C49.4653 54.6 49.4698 54.6 49.4743 54.6C49.4788 54.6 49.4833 54.6 49.4878 54.6C49.4923 54.6 49.4968 54.6 49.5013 54.6C49.5058 54.6 49.5103 54.6 49.5148 54.6C49.5194 54.6 49.5239 54.6 49.5284 54.6C49.5329 54.6 49.5374 54.6 49.5419 54.6C49.5464 54.6 49.5509 54.6 49.5554 54.6C49.56 54.6 49.5645 54.6 49.569 54.6C49.5735 54.6 49.578 54.6 49.5825 54.6C49.587 54.6 49.5916 54.6 49.5961 54.6C49.6006 54.6 49.6051 54.6 49.6096 54.6C49.6142 54.6 49.6187 54.6 49.6232 54.6C49.6277 54.6 49.6322 54.6 49.6368 54.6C49.6413 54.6 49.6458 54.6 49.6503 54.6C49.6549 54.6 49.6594 54.6 49.6639 54.6C49.6684 54.6 49.673 54.6 49.6775 54.6C49.682 54.6 49.6865 54.6 49.6911 54.6C49.6956 54.6 49.7001 54.6 49.7047 54.6C49.7092 54.6 49.7137 54.6 49.7182 54.6C49.7228 54.6 49.7273 54.6 49.7318 54.6C49.7364 54.6 49.7409 54.6 49.7454 54.6C49.75 54.6 49.7545 54.6 49.759 54.6C49.7636 54.6 49.7681 54.6 49.7727 54.6C49.7772 54.6 49.7817 54.6 49.7863 54.6C49.7908 54.6 49.7953 54.6 49.7999 54.6C49.8044 54.6 49.809 54.6 49.8135 54.6C49.8181 54.6 49.8226 54.6 49.8271 54.6C49.8317 54.6 49.8362 54.6 49.8408 54.6C49.8453 54.6 49.8499 54.6 49.8544 54.6C49.859 54.6 49.8635 54.6 49.8681 54.6C49.8726 54.6 49.8772 54.6 49.8817 54.6C49.8862 54.6 49.8908 54.6 49.8954 54.6C49.8999 54.6 49.9045 54.6 49.909 54.6C49.9136 54.6 49.9181 54.6 49.9227 54.6C49.9272 54.6 49.9318 54.6 49.9363 54.6C49.9409 54.6 49.9454 54.6 49.95 54.6C49.9546 54.6 49.9591 54.6 49.9637 54.6C49.9682 54.6 49.9728 54.6 49.9774 54.6C49.9819 54.6 49.9865 54.6 49.991 54.6C49.9956 54.6 50.0002 54.6 50.0047 54.6C50.0093 54.6 50.0139 54.6 50.0184 54.6C50.023 54.6 50.0275 54.6 50.0321 54.6C50.0367 54.6 50.0412 54.6 50.0458 54.6C50.0504 54.6 50.055 54.6 50.0595 54.6C50.0641 54.6 50.0687 54.6 50.0732 54.6C50.0778 54.6 50.0824 54.6 50.0869 54.6C50.0915 54.6 50.0961 54.6 50.1007 54.6C50.1052 54.6 50.1098 54.6 50.1144 54.6C50.119 54.6 50.1235 54.6 50.1281 54.6C50.1327 54.6 50.1373 54.6 50.1419 54.6C50.1464 54.6 50.151 54.6 50.1556 54.6C50.1602 54.6 50.1648 54.6 50.1693 54.6C50.1739 54.6 50.1785 54.6 50.1831 54.6C50.1877 54.6 50.1923 54.6 50.1968 54.6C50.2014 54.6 50.206 54.6 50.2106 54.6C50.2152 54.6 50.2198 54.6 50.2244 54.6C50.2289 54.6 50.2335 54.6 50.2381 54.6C50.2427 54.6 50.2473 54.6 50.2519 54.6C50.2565 54.6 50.2611 54.6 50.2657 54.6C50.2703 54.6 50.2749 54.6 50.2794 54.6C50.284 54.6 50.2886 54.6 50.2932 54.6C50.2978 54.6 50.3024 54.6 50.307 54.6C50.3116 54.6 50.3162 54.6 50.3208 54.6C50.3254 54.6 50.33 54.6 50.3346 54.6C50.3392 54.6 50.3438 54.6 50.3484 54.6C50.353 54.6 50.3576 54.6 50.3622 54.6C50.3668 54.6 50.3714 54.6 50.376 54.6C50.3806 54.6 50.3852 54.6 50.3898 54.6C50.3945 54.6 50.3991 54.6 50.4037 54.6C50.4083 54.6 50.4129 54.6 50.4175 54.6C50.4221 54.6 50.4267 54.6 50.4313 54.6C50.4359 54.6 50.4405 54.6 50.4452 54.6C50.4498 54.6 50.4544 54.6 50.459 54.6C50.4636 54.6 50.4682 54.6 50.4728 54.6C50.4775 54.6 50.4821 54.6 50.4867 54.6C50.4913 54.6 50.4959 54.6 50.5005 54.6C50.5052 54.6 50.5098 54.6 50.5144 54.6C50.519 54.6 50.5236 54.6 50.5283 54.6C50.5329 54.6 50.5375 54.6 50.5421 54.6C50.5467 54.6 50.5514 54.6 50.556 54.6C50.5606 54.6 50.5652 54.6 50.5699 54.6C50.5745 54.6 50.5791 54.6 50.5838 54.6C50.5884 54.6 50.593 54.6 50.5976 54.6C50.6023 54.6 50.6069 54.6 50.6115 54.6C50.6162 54.6 50.6208 54.6 50.6254 54.6C50.6301 54.6 50.6347 54.6 50.6393 54.6C50.644 54.6 50.6486 54.6 50.6532 54.6C50.6579 54.6 50.6625 54.6 50.6671 54.6C50.6718 54.6 50.6764 54.6 50.681 54.6C50.6857 54.6 50.6903 54.6 50.695 54.6C50.6996 54.6 50.7042 54.6 50.7089 54.6C50.7135 54.6 50.7182 54.6 50.7228 54.6C50.7274 54.6 50.7321 54.6 50.7367 54.6C50.7414 54.6 50.746 54.6 50.7507 54.6C50.7553 54.6 50.76 54.6 50.7646 54.6C50.7693 54.6 50.7739 54.6 50.7786 54.6C50.7832 54.6 50.7879 54.6 50.7925 54.6C50.7972 54.6 50.8018 54.6 50.8065 54.6C50.8111 54.6 50.8158 54.6 50.8204 54.6C50.8251 54.6 50.8297 54.6 50.8344 54.6C50.839 54.6 50.8437 54.6 50.8483 54.6C50.853 54.6 50.8577 54.6 50.8623 54.6C50.867 54.6 50.8716 54.6 50.8763 54.6C50.881 54.6 50.8856 54.6 50.8903 54.6C50.8949 54.6 50.8996 54.6 50.9043 54.6C50.9089 54.6 50.9136 54.6 50.9182 54.6C50.9229 54.6 50.9276 54.6 50.9322 54.6C50.9369 54.6 50.9416 54.6 50.9462 54.6C50.9509 54.6 50.9556 54.6 50.9602 54.6C50.9649 54.6 50.9696 54.6 50.9743 54.6C50.9789 54.6 50.9836 54.6 50.9883 54.6C50.9929 54.6 50.9976 54.6 51.0023 54.6C51.007 54.6 51.0116 54.6 51.0163 54.6C51.021 54.6 51.0257 54.6 51.0303 54.6C51.035 54.6 51.0397 54.6 51.0444 54.6C51.049 54.6 51.0537 54.6 51.0584 54.6C51.0631 54.6 51.0678 54.6 51.0724 54.6C51.0771 54.6 51.0818 54.6 51.0865 54.6C51.0912 54.6 51.0959 54.6 51.1005 54.6C51.1052 54.6 51.1099 54.6 51.1146 54.6C51.1193 54.6 51.124 54.6 51.1286 54.6C51.1333 54.6 51.138 54.6 51.1427 54.6C51.1474 54.6 51.1521 54.6 51.1568 54.6C51.1615 54.6 51.1662 54.6 51.1709 54.6C51.1755 54.6 51.1802 54.6 51.1849 54.6C51.1896 54.6 51.1943 54.6 51.199 54.6C51.2037 54.6 51.2084 54.6 51.2131 54.6C51.2178 54.6 51.2225 54.6 51.2272 54.6C51.2319 54.6 51.2366 54.6 51.2413 54.6C51.246 54.6 51.2507 54.6 51.2554 54.6C51.2601 54.6 51.2648 54.6 51.2695 54.6C51.2742 54.6 51.2789 54.6 51.2836 54.6C51.2883 54.6 51.293 54.6 51.2977 54.6C51.3024 54.6 51.3071 54.6 51.3118 54.6C51.3165 54.6 51.3212 54.6 51.326 54.6C51.3307 54.6 51.3354 54.6 51.3401 54.6C51.3448 54.6 51.3495 54.6 51.3542 54.6C51.3589 54.6 51.3636 54.6 51.3683 54.6C51.3731 54.6 51.3778 54.6 51.3825 54.6C51.3872 54.6 51.3919 54.6 51.3966 54.6C51.4013 54.6 51.4061 54.6 51.4108 54.6C51.4155 54.6 51.4202 54.6 51.4249 54.6C51.4297 54.6 51.4344 54.6 51.4391 54.6C51.4438 54.6 51.4485 54.6 51.4533 54.6C51.458 54.6 51.4627 54.6 51.4674 54.6C51.4722 54.6 51.4769 54.6 51.4816 54.6C51.4863 54.6 51.4911 54.6 51.4958 54.6C51.5005 54.6 51.5052 54.6 51.51 54.6C51.5147 54.6 51.5194 54.6 51.5242 54.6C51.5289 54.6 51.5336 54.6 51.5383 54.6C51.5431 54.6 51.5478 54.6 51.5525 54.6C51.5573 54.6 51.562 54.6 51.5667 54.6C51.5715 54.6 51.5762 54.6 51.5809 54.6C51.5857 54.6 51.5904 54.6 51.5952 54.6C51.5999 54.6 51.6046 54.6 51.6094 54.6C51.6141 54.6 51.6188 54.6 51.6236 54.6C51.6283 54.6 51.6331 54.6 51.6378 54.6C51.6426 54.6 51.6473 54.6 51.652 54.6C51.6568 54.6 51.6615 54.6 51.6663 54.6C51.671 54.6 51.6758 54.6 51.6805 54.6C51.6853 54.6 51.69 54.6 51.6947 54.6C51.6995 54.6 51.7042 54.6 51.709 54.6C51.7137 54.6 51.7185 54.6 51.7232 54.6C51.728 54.6 51.7327 54.6 51.7375 54.6C51.7423 54.6 51.747 54.6 51.7518 54.6C51.7565 54.6 51.7613 54.6 51.766 54.6C51.7708 54.6 51.7755 54.6 51.7803 54.6C51.7851 54.6 51.7898 54.6 51.7946 54.6C51.7993 54.6 51.8041 54.6 51.8088 54.6C51.8136 54.6 51.8184 54.6 51.8231 54.6C51.8279 54.6 51.8327 54.6 51.8374 54.6C51.8422 54.6 51.8469 54.6 51.8517 54.6C51.8565 54.6 51.8612 54.6 51.866 54.6C51.8708 54.6 51.8755 54.6 51.8803 54.6C51.8851 54.6 51.8898 54.6 51.8946 54.6C51.8994 54.6 51.9042 54.6 51.9089 54.6C51.9137 54.6 51.9185 54.6 51.9232 54.6C51.928 54.6 51.9328 54.6 51.9376 54.6C51.9423 54.6 51.9471 54.6 51.9519 54.6C51.9567 54.6 51.9614 54.6 51.9662 54.6C51.971 54.6 51.9758 54.6 51.9805 54.6C51.9853 54.6 51.9901 54.6 51.9949 54.6C51.9997 54.6 52.0044 54.6 52.0092 54.6C52.014 54.6 52.0188 54.6 52.0236 54.6C52.0284 54.6 52.0331 54.6 52.0379 54.6C52.0427 54.6 52.0475 54.6 52.0523 54.6C52.0571 54.6 52.0619 54.6 52.0666 54.6C52.0714 54.6 52.0762 54.6 52.081 54.6C52.0858 54.6 52.0906 54.6 52.0954 54.6C52.1002 54.6 52.105 54.6 52.1098 54.6C52.1145 54.6 52.1193 54.6 52.1241 54.6C52.1289 54.6 52.1337 54.6 52.1385 54.6C52.1433 54.6 52.1481 54.6 52.1529 54.6C52.1577 54.6 52.1625 54.6 52.1673 54.6C52.1721 54.6 52.1769 54.6 52.1817 54.6C52.1865 54.6 52.1913 54.6 52.1961 54.6C52.2009 54.6 52.2057 54.6 52.2105 54.6C52.2153 54.6 52.2201 54.6 52.2249 54.6C52.2297 54.6 52.2345 54.6 52.2393 54.6C52.2441 54.6 52.2489 54.6 52.2537 54.6C52.2586 54.6 52.2634 54.6 52.2682 54.6C52.273 54.6 52.2778 54.6 52.2826 54.6C52.2874 54.6 52.2922 54.6 52.297 54.6C52.3018 54.6 52.3067 54.6 52.3115 54.6C52.3163 54.6 52.3211 54.6 52.3259 54.6C52.3307 54.6 52.3356 54.6 52.3404 54.6C52.3452 54.6 52.35 54.6 52.3548 54.6C52.3596 54.6 52.3645 54.6 52.3693 54.6C52.3741 54.6 52.3789 54.6 52.3837 54.6C52.3886 54.6 52.3934 54.6 52.3982 54.6C52.403 54.6 52.4079 54.6 52.4127 54.6C52.4175 54.6 52.4223 54.6 52.4272 54.6C52.432 54.6 52.4368 54.6 52.4416 54.6C52.4465 54.6 52.4513 54.6 52.4561 54.6C52.4609 54.6 52.4658 54.6 52.4706 54.6C52.4754 54.6 52.4803 54.6 52.4851 54.6C52.4899 54.6 52.4948 54.6 52.4996 54.6C52.5044 54.6 52.5093 54.6 52.5141 54.6C52.5189 54.6 52.5238 54.6 52.5286 54.6C52.5334 54.6 52.5383 54.6 52.5431 54.6C52.548 54.6 52.5528 54.6 52.5576 54.6C52.5625 54.6 52.5673 54.6 52.5722 54.6C52.577 54.6 52.5818 54.6 52.5867 54.6C52.5915 54.6 52.5964 54.6 52.6012 54.6C52.6061 54.6 52.6109 54.6 52.6157 54.6C52.6206 54.6 52.6254 54.6 52.6303 54.6C52.6351 54.6 52.64 54.6 52.6448 54.6C52.6497 54.6 52.6545 54.6 52.6594 54.6C52.6642 54.6 52.6691 54.6 52.6739 54.6C52.6788 54.6 52.6836 54.6 52.6885 54.6C52.6933 54.6 52.6982 54.6 52.7031 54.6C52.7079 54.6 52.7128 54.6 52.7176 54.6C52.7225 54.6 52.7273 54.6 52.7322 54.6C52.737 54.6 52.7419 54.6 52.7468 54.6C52.7516 54.6 52.7565 54.6 52.7613 54.6C52.7662 54.6 52.7711 54.6 52.7759 54.6C52.7808 54.6 52.7857 54.6 52.7905 54.6C52.7954 54.6 52.8002 54.6 52.8051 54.6C52.81 54.6 52.8148 54.6 52.8197 54.6C52.8246 54.6 52.8294 54.6 52.8343 54.6C52.8392 54.6 52.8441 54.6 52.8489 54.6C52.8538 54.6 52.8587 54.6 52.8635 54.6C52.8684 54.6 52.8733 54.6 52.8782 54.6C52.883 54.6 52.8879 54.6 52.8928 54.6C52.8977 54.6 52.9025 54.6 52.9074 54.6C52.9123 54.6 52.9172 54.6 52.922 54.6C52.9269 54.6 52.9318 54.6 52.9367 54.6C52.9415 54.6 52.9464 54.6 52.9513 54.6C52.9562 54.6 52.9611 54.6 52.966 54.6C52.9708 54.6 52.9757 54.6 52.9806 54.6C52.9855 54.6 52.9904 54.6 52.9953 54.6C53.0001 54.6 53.005 54.6 53.0099 54.6C53.0148 54.6 53.0197 54.6 53.0246 54.6C53.0295 54.6 53.0344 54.6 53.0392 54.6C53.0441 54.6 53.049 54.6 53.0539 54.6C53.0588 54.6 53.0637 54.6 53.0686 54.6C53.0735 54.6 53.0784 54.6 53.0833 54.6C53.0882 54.6 53.0931 54.6 53.098 54.6C53.1029 54.6 53.1078 54.6 53.1127 54.6C53.1175 54.6 53.1224 54.6 53.1273 54.6C53.1322 54.6 53.1371 54.6 53.142 54.6C53.1469 54.6 53.1518 54.6 53.1567 54.6C53.1617 54.6 53.1666 54.6 53.1715 54.6C53.1764 54.6 53.1813 54.6 53.1862 54.6C53.1911 54.6 53.196 54.6 53.2009 54.6C53.2058 54.6 53.2107 54.6 53.2156 54.6C53.2205 54.6 53.2254 54.6 53.2303 54.6C53.2352 54.6 53.2402 54.6 53.2451 54.6C53.25 54.6 53.2549 54.6 53.2598 54.6C53.2647 54.6 53.2696 54.6 53.2745 54.6C53.2795 54.6 53.2844 54.6 53.2893 54.6C53.2942 54.6 53.2991 54.6 53.304 54.6C53.309 54.6 53.3139 54.6 53.3188 54.6C53.3237 54.6 53.3286 54.6 53.3336 54.6C53.3385 54.6 53.3434 54.6 53.3483 54.6C53.3532 54.6 53.3582 54.6 53.3631 54.6C53.368 54.6 53.3729 54.6 53.3779 54.6C53.3828 54.6 53.3877 54.6 53.3926 54.6C53.3976 54.6 53.4025 54.6 53.4074 54.6C53.4123 54.6 53.4173 54.6 53.4222 54.6C53.4271 54.6 53.4321 54.6 53.437 54.6C53.4419 54.6 53.4469 54.6 53.4518 54.6C53.4567 54.6 53.4617 54.6 53.4666 54.6C53.4715 54.6 53.4765 54.6 53.4814 54.6C53.4863 54.6 53.4913 54.6 53.4962 54.6C53.5011 54.6 53.5061 54.6 53.511 54.6C53.516 54.6 53.5209 54.6 53.5258 54.6C53.5308 54.6 53.5357 54.6 53.5407 54.6C53.5456 54.6 53.5505 54.6 53.5555 54.6C53.5604 54.6 53.5654 54.6 53.5703 54.6C53.5753 54.6 53.5802 54.6 53.5852 54.6C53.5901 54.6 53.5951 54.6 53.6 54.6V48.6ZM46.6 48.6C44.4387 48.6 42.4221 48.7045 40.5561 48.9198L41.2439 54.8802C42.8445 54.6955 44.628 54.6 46.6 54.6V48.6ZM40.5561 48.9198C38.6557 49.139 36.8638 49.5088 35.1904 50.0412L37.0096 55.7588C38.2695 55.3579 39.6776 55.0609 41.2439 54.8802L40.5561 48.9198ZM35.3106 50.0057C33.573 50.4796 31.9199 51.1895 30.3565 52.1275L33.4435 57.2725C34.5468 56.6105 35.6936 56.1204 36.8894 55.7943L35.3106 50.0057ZM31.9 57.7H74V51.7H31.9V57.7ZM71 54.7V78H77V54.7H71ZM74 75H7.1V81H74V75ZM10.1 78V66.7H4.1V78H10.1Z" fill="#22ADAA"/>
</g>
<defs>
<filter id="filter0_d_79_1163" x="0.100098" y="0.5" width="89.7998" height="91.5" filterUnits="userSpaceOnUse" color-interpolation-filters="sRGB">
<feFlood flood-opacity="0" result="BackgroundImageFix"/>
<feColorMatrix in="SourceAlpha" type="matrix" values="0 0 0 0 0 0 0 0 0 0 0 0 0 0 0 0 0 0 127 0" result="hardAlpha"/>
<feOffset dx="3" dy="4"/>
<feGaussianBlur stdDeviation="5"/>
<feComposite in2="hardAlpha" operator="out"/>
<feColorMatrix type="matrix" values="0 0 0 0 0 0 0 0 0 0 0 0 0 0 0 0 0 0 0.25 0"/>
<feBlend mode="normal" in2="BackgroundImageFix" result="effect1_dropShadow_79_1163"/>
<feBlend mode="normal" in="SourceGraphic" in2="effect1_dropShadow_79_1163" result="shape"/>
</filter>
</defs>
</svg>
