<svg width="91" height="94" viewBox="0 0 91 94" fill="none" xmlns="http://www.w3.org/2000/svg">
<g filter="url(#filter0_d_79_1164)">
<path d="M7 31.3H4V34.3H7V31.3ZM8.8 20.7L6.05594 19.4875L6.04917 19.5028L6.04257 19.5182L8.8 20.7ZM13.9 13.3L15.9874 15.4547L16.0045 15.4382L16.0213 15.4213L13.9 13.3ZM21.3 8.3L20.1416 5.53267L20.1299 5.53757L20.1182 5.54256L21.3 8.3ZM62.8 8.2L61.6744 10.9808L61.6857 10.9854L61.697 10.9899L62.8 8.2ZM70.2 12.9L68.1137 15.0558L68.149 15.09L68.1854 15.123L70.2 12.9ZM75.2 19.8L72.4642 21.0311L72.483 21.0728L72.503 21.1139L75.2 19.8ZM75.2 36.8L72.5167 35.4584L72.5094 35.4729L72.5023 35.4876L75.2 36.8ZM71.1 43L68.8922 40.9688L67.0235 43L68.8922 45.0312L71.1 43ZM75.2 49.3L72.4888 50.5843L72.5094 50.6277L72.5313 50.6704L75.2 49.3ZM75.2 66.3L72.4902 65.0128L72.4831 65.0278L72.4761 65.0428L75.2 66.3ZM70.2 73.2L72.2495 75.3908L72.2518 75.3886L70.2 73.2ZM62.8 77.8L61.697 75.0101L61.6857 75.0146L61.6744 75.0192L62.8 77.8ZM21.3 77.7L20.1182 80.4574L20.1299 80.4624L20.1416 80.4673L21.3 77.7ZM13.9 72.8L11.7787 74.9213L11.7955 74.9382L11.8126 74.9547L13.9 72.8ZM8.8 65.4L6.03268 66.5584L6.04912 66.5977L6.06668 66.6365L8.8 65.4ZM7 54.7V51.7H4V54.7H7ZM30.4 54.7H33.4V51.7H30.4V54.7ZM31.7 57.8L29.5787 59.9213L29.5787 59.9213L31.7 57.8ZM52.5 57.8L50.3016 55.7586L50.2956 55.7652L52.5 57.8ZM52.5 51.6L50.2956 53.6348L50.377 53.723L50.4652 53.8044L52.5 51.6ZM36.2 50.3H33.2V53.3H36.2V50.3ZM36.2 35.7V32.7H33.2V35.7H36.2ZM52.5 34.5L50.3787 32.3787L52.5 34.5ZM52.5 28.3L50.2222 30.2524L50.2972 30.3399L50.3787 30.4213L52.5 28.3ZM31.7 28.2L29.5787 26.0787L29.5787 26.0787L31.7 28.2ZM30.4 31.3V34.3H33.4V31.3H30.4ZM10 31.3V29.8H4V31.3H10ZM10 29.8C10 26.9098 10.5288 24.2819 11.5574 21.8818L6.04257 19.5182C4.6712 22.7181 4 26.1568 4 29.8H10ZM11.5441 21.9125C12.6633 19.3795 14.1467 17.2379 15.9874 15.4547L11.8126 11.1453C9.38664 13.4954 7.47004 16.2872 6.05594 19.4875L11.5441 21.9125ZM16.0213 15.4213C17.8821 13.5605 20.0291 12.1086 22.4818 11.0574L20.1182 5.54256C16.9709 6.89141 14.1846 8.7728 11.7787 11.1787L16.0213 15.4213ZM22.4584 11.0673C24.9472 10.0255 27.5857 9.5 30.4 9.5V3.5C26.8143 3.5 23.3861 4.17449 20.1416 5.53267L22.4584 11.0673ZM30.4 9.5H53.8V3.5H30.4V9.5ZM53.8 9.5C56.6374 9.5 59.2529 10.0007 61.6744 10.9808L63.9256 5.41916C60.7471 4.13262 57.3626 3.5 53.8 3.5V9.5ZM61.697 10.9899C64.2241 11.989 66.3499 13.3489 68.1137 15.0558L72.2863 10.7442C69.9168 8.45113 67.1092 6.67771 63.903 5.41012L61.697 10.9899ZM68.1854 15.123C70.0077 16.7744 71.431 18.7351 72.4642 21.0311L77.9358 18.5689C76.569 15.5316 74.6589 12.8922 72.2146 10.677L68.1854 15.123ZM72.503 21.1139C73.5628 23.2892 74.1 25.6378 74.1 28.2H80.1C80.1 24.7622 79.3706 21.5108 77.897 18.4861L72.503 21.1139ZM74.1 28.2C74.1 30.9952 73.5495 33.3929 72.5167 35.4584L77.8833 38.1416C79.3839 35.1405 80.1 31.8048 80.1 28.2H74.1ZM72.5023 35.4876C71.4039 37.7455 70.1917 39.5563 68.8922 40.9688L73.3078 45.0312C75.075 43.1103 76.5961 40.7879 77.8977 38.1124L72.5023 35.4876ZM68.8922 45.0312C70.1793 46.4301 71.3886 48.2617 72.4888 50.5843L77.9112 48.0157C76.6114 45.2716 75.0874 42.9032 73.3078 40.9688L68.8922 45.0312ZM72.5313 50.6704C73.5489 52.6521 74.1 55.003 74.1 57.8H80.1C80.1 54.197 79.3844 50.8813 77.8687 47.9296L72.5313 50.6704ZM74.1 57.8C74.1 60.3622 73.5626 62.755 72.4902 65.0128L77.9098 67.5872C79.3707 64.5116 80.1 61.2378 80.1 57.8H74.1ZM72.4761 65.0428C71.4415 67.2844 70.0057 69.27 68.1482 71.0114L72.2518 75.3886C74.661 73.13 76.5585 70.5156 77.9239 67.5572L72.4761 65.0428ZM68.1505 71.0092C66.3826 72.6631 64.2448 74.0029 61.697 75.0101L63.903 80.5899C67.0886 79.3305 69.8841 77.6036 72.2495 75.3908L68.1505 71.0092ZM61.6744 75.0192C59.2529 75.9993 56.6374 76.5 53.8 76.5V82.5C57.3626 82.5 60.7471 81.8674 63.9256 80.5808L61.6744 75.0192ZM53.8 76.5H30.4V82.5H53.8V76.5ZM30.4 76.5C27.5857 76.5 24.9472 75.9745 22.4584 74.9327L20.1416 80.4673C23.3861 81.8255 26.8143 82.5 30.4 82.5V76.5ZM22.4818 74.9426C20.0091 73.8828 17.8513 72.451 15.9874 70.6453L11.8126 74.9547C14.2153 77.2824 16.9909 79.1172 20.1182 80.4574L22.4818 74.9426ZM16.0213 70.6787C14.1485 68.8058 12.6538 66.6404 11.5333 64.1635L6.06668 66.6365C7.47953 69.7597 9.38488 72.5275 11.7787 74.9213L16.0213 70.6787ZM11.5673 64.2416C10.5287 61.7604 10 59.0896 10 56.2H4C4 59.8437 4.6713 63.3062 6.03268 66.5584L11.5673 64.2416ZM10 56.2V54.7H4V56.2H10ZM7 57.7H30.4V51.7H7V57.7ZM27.4 54.7C27.4 56.7145 28.1629 58.5055 29.5787 59.9213L33.8213 55.6787C33.5038 55.3611 33.4 55.0855 33.4 54.7H27.4ZM29.5787 59.9213C30.9945 61.3371 32.7855 62.1 34.8 62.1V56.1C34.4145 56.1 34.1389 55.9962 33.8213 55.6787L29.5787 59.9213ZM34.8 62.1H49.4V56.1H34.8V62.1ZM49.4 62.1C51.4346 62.1 53.2911 61.3659 54.7044 59.8348L50.2956 55.7652C50.1089 55.9674 49.8987 56.1 49.4 56.1V62.1ZM54.6984 59.8414C56.0456 58.3905 56.8 56.6067 56.8 54.6H50.8C50.8 54.9933 50.6877 55.3428 50.3016 55.7586L54.6984 59.8414ZM56.8 54.6C56.8 52.5793 56.0288 50.7747 54.5348 49.3956L50.4652 53.8044C50.7045 54.0253 50.8 54.2207 50.8 54.6H56.8ZM54.7044 49.5652C53.2911 48.0341 51.4346 47.3 49.4 47.3V53.3C49.8987 53.3 50.1089 53.4326 50.2956 53.6348L54.7044 49.5652ZM49.4 47.3H36.2V53.3H49.4V47.3ZM39.2 50.3V35.7H33.2V50.3H39.2ZM36.2 38.7H49.4V32.7H36.2V38.7ZM49.4 38.7C51.3583 38.7 53.1892 38.0534 54.6213 36.6213L50.3787 32.3787C50.2108 32.5466 49.975 32.7 49.4 32.7V38.7ZM54.6213 36.6213C56.0371 35.2055 56.8 33.4145 56.8 31.4H50.8C50.8 31.7855 50.6962 32.0611 50.3787 32.3787L54.6213 36.6213ZM56.8 31.4C56.8 29.3855 56.0371 27.5945 54.6213 26.1787L50.3787 30.4213C50.6962 30.7389 50.8 31.0145 50.8 31.4H56.8ZM54.7778 26.3476C53.3882 24.7265 51.5119 23.9 49.4 23.9V29.9C49.8215 29.9 50.0118 30.0068 50.2222 30.2524L54.7778 26.3476ZM49.4 23.9H34.8V29.9H49.4V23.9ZM34.8 23.9C32.7855 23.9 30.9945 24.6629 29.5787 26.0787L33.8213 30.3213C34.1389 30.0038 34.4145 29.9 34.8 29.9V23.9ZM29.5787 26.0787C28.1629 27.4945 27.4 29.2855 27.4 31.3H33.4C33.4 30.9145 33.5038 30.6389 33.8213 30.3213L29.5787 26.0787ZM30.4 28.3H7V34.3H30.4V28.3Z" fill="#22ADAA"/>
</g>
<defs>
<filter id="filter0_d_79_1164" x="0" y="0.5" width="90.1001" height="93" filterUnits="userSpaceOnUse" color-interpolation-filters="sRGB">
<feFlood flood-opacity="0" result="BackgroundImageFix"/>
<feColorMatrix in="SourceAlpha" type="matrix" values="0 0 0 0 0 0 0 0 0 0 0 0 0 0 0 0 0 0 127 0" result="hardAlpha"/>
<feOffset dx="3" dy="4"/>
<feGaussianBlur stdDeviation="5"/>
<feComposite in2="hardAlpha" operator="out"/>
<feColorMatrix type="matrix" values="0 0 0 0 0 0 0 0 0 0 0 0 0 0 0 0 0 0 0.25 0"/>
<feBlend mode="normal" in2="BackgroundImageFix" result="effect1_dropShadow_79_1164"/>
<feBlend mode="normal" in="SourceGraphic" in2="effect1_dropShadow_79_1164" result="shape"/>
</filter>
</defs>
</svg>
