<svg width="90" height="92" viewBox="0 0 90 92" fill="none" xmlns="http://www.w3.org/2000/svg">
<g filter="url(#filter0_d_79_1166)">
<path d="M74 6H77V3H74V6ZM74 29.3V32.3H77V29.3H74ZM30.9 29.3V26.3H21.3205L29.1888 31.7641L30.9 29.3ZM40.2 32.1L40.0423 35.0959L40.2 32.1ZM63 33.7L62.1318 36.5716L62.1626 36.5809L62.1936 36.5896L63 33.7ZM70.3 37.6L68.2931 39.8299L68.332 39.8649L68.3722 39.8986L70.3 37.6ZM75.1 44.3L72.3288 45.449L72.3406 45.4776L72.3531 45.506L75.1 44.3ZM75 63.3L72.2559 62.0875L72.2492 62.1028L72.2426 62.1182L75 63.3ZM70 70.7L67.8787 68.5787H67.8787L70 70.7ZM62.6 75.7L63.7818 78.4574L63.7972 78.4508L63.8125 78.4441L62.6 75.7ZM21.3 75.7L20.0635 78.4333L20.1023 78.4509L20.1416 78.4673L21.3 75.7ZM13.9 70.7L11.7453 72.7874L11.7784 72.8216L11.8126 72.8547L13.9 70.7ZM8.9 63.3L6.13268 64.4584L6.14912 64.4977L6.16668 64.5365L8.9 63.3ZM7.1 52.7V49.7H4.1V52.7H7.1ZM30.4 52.7H33.4V49.7H30.4V52.7ZM31.7 55.9L29.6652 58.1044L29.7057 58.1418L29.7476 58.1778L31.7 55.9ZM52.3 55.8L54.4213 57.9213L52.3 55.8ZM52.3 49.8L50.0956 51.8348L50.177 51.923L50.2652 52.0044L52.3 49.8ZM49.3 48.4L49.4664 45.4046L49.4493 45.4037L49.4322 45.4029L49.3 48.4ZM36.5 47.7L36.2467 50.6893L36.2735 50.6916L36.3004 50.6934L36.5 47.7ZM25.3 45.4L24.3187 48.235L24.327 48.2378L24.3353 48.2406L25.3 45.4ZM15.5 39.9L13.5947 42.2173L13.6071 42.2275L13.6197 42.2376L15.5 39.9ZM7.1 29.3H4.1V30.0892L4.48831 30.7762L7.1 29.3ZM7.1 6V3H4.1V6H7.1ZM71 6V29.3H77V6H71ZM74 26.3H30.9V32.3H74V26.3ZM29.1888 31.7641C32.1663 33.8318 35.8503 34.8752 40.0423 35.0959L40.3577 29.1041C36.9497 28.9248 34.4337 28.1015 32.6112 26.8359L29.1888 31.7641ZM40.0423 35.0959C43.9093 35.2994 48.4309 35.4 53.6 35.4V29.4C48.5025 29.4 44.0907 29.3006 40.3577 29.1041L40.0423 35.0959ZM53.6 35.4C56.745 35.4 59.5818 35.8007 62.1318 36.5716L63.8682 30.8284C60.6849 29.866 57.255 29.4 53.6 29.4V35.4ZM62.1936 36.5896C64.6625 37.2786 66.6722 38.3711 68.2931 39.8299L72.3069 35.3701C69.9278 33.2289 67.0708 31.7214 63.8064 30.8104L62.1936 36.5896ZM68.3722 39.8986C70.0345 41.2928 71.3619 43.1171 72.3288 45.449L77.8712 43.151C76.5715 40.0163 74.6988 37.3738 72.2278 35.3014L68.3722 39.8986ZM72.3531 45.506C73.3447 47.7647 73.9 50.6311 73.9 54.2H79.9C79.9 50.0356 79.2553 46.302 77.8469 43.094L72.3531 45.506ZM73.9 54.2C73.9 56.9915 73.3502 59.611 72.2559 62.0875L77.7441 64.5125C79.1831 61.2557 79.9 57.8085 79.9 54.2H73.9ZM72.2426 62.1182C71.1914 64.5709 69.7395 66.7179 67.8787 68.5787L72.1213 72.8213C74.5272 70.4154 76.4086 67.6291 77.7574 64.4818L72.2426 62.1182ZM67.8787 68.5787C66.0923 70.365 63.9401 71.8281 61.3875 72.9559L63.8125 78.4441C66.9933 77.0386 69.7743 75.1683 72.1213 72.8213L67.8787 68.5787ZM61.4182 72.9426C59.0104 73.9745 56.4146 74.5 53.6 74.5V80.5C57.1854 80.5 60.5896 79.8255 63.7818 78.4574L61.4182 72.9426ZM53.6 74.5H30.4V80.5H53.6V74.5ZM30.4 74.5C27.5857 74.5 24.9472 73.9745 22.4584 72.9327L20.1416 78.4673C23.3861 79.8255 26.8143 80.5 30.4 80.5V74.5ZM22.5365 72.9667C20.0403 71.8374 17.864 70.3632 15.9874 68.5453L11.8126 72.8547C14.2027 75.1701 16.9597 77.0292 20.0635 78.4333L22.5365 72.9667ZM16.0547 68.6126C14.2368 66.736 12.7626 64.5597 11.6333 62.0635L6.16668 64.5365C7.57076 67.6403 9.42987 70.3973 11.7453 72.7874L16.0547 68.6126ZM11.6673 62.1416C10.6255 59.6528 10.1 57.0143 10.1 54.2H4.1C4.1 57.7857 4.7745 61.2139 6.13268 64.4584L11.6673 62.1416ZM10.1 54.2V52.7H4.1V54.2H10.1ZM7.1 55.7H30.4V49.7H7.1V55.7ZM27.4 52.7C27.4 54.75 28.0999 56.6595 29.6652 58.1044L33.7348 53.6956C33.5668 53.5405 33.4 53.3167 33.4 52.7H27.4ZM29.7476 58.1778C31.1369 59.3686 32.8095 60.1 34.7 60.1V54.1C34.4572 54.1 34.1298 54.0314 33.6524 53.6222L29.7476 58.1778ZM34.7 60.1H49.3V54.1H34.7V60.1ZM49.3 60.1C51.2978 60.1 53.0426 59.3 54.4213 57.9213L50.1787 53.6787C49.824 54.0333 49.5689 54.1 49.3 54.1V60.1ZM54.4213 57.9213C55.8371 56.5055 56.6 54.7145 56.6 52.7H50.6C50.6 53.0855 50.4962 53.3611 50.1787 53.6787L54.4213 57.9213ZM56.6 52.7C56.6 50.6916 55.7885 48.9374 54.3348 47.5956L50.2652 52.0044C50.5449 52.2626 50.6 52.4417 50.6 52.7H56.6ZM54.5044 47.7652C53.1646 46.3137 51.4282 45.5136 49.4664 45.4046L49.1336 51.3954C49.5718 51.4197 49.8354 51.553 50.0956 51.8348L54.5044 47.7652ZM49.4322 45.4029C44.9185 45.2038 40.6744 44.9716 36.6996 44.7066L36.3004 50.6934C40.3256 50.9617 44.6149 51.1962 49.1678 51.3971L49.4322 45.4029ZM36.7533 44.7107C33.0483 44.3967 29.5549 43.6768 26.2647 42.5594L24.3353 48.2406C28.1117 49.5232 32.085 50.3366 36.2467 50.6893L36.7533 44.7107ZM26.2813 42.565C23.1637 41.4859 20.1978 39.8286 17.3803 37.5624L13.6197 42.2376C16.9356 44.9047 20.503 46.9141 24.3187 48.235L26.2813 42.565ZM17.4053 37.5827C14.773 35.4184 12.1913 32.2107 9.71169 27.8238L4.48831 30.7762C7.20875 35.5892 10.227 39.4483 13.5947 42.2173L17.4053 37.5827ZM10.1 29.3V6H4.1V29.3H10.1ZM7.1 9H74V3H7.1V9Z" fill="#22ADAA"/>
</g>
<defs>
<filter id="filter0_d_79_1166" x="0.100098" y="0" width="89.7998" height="91.5" filterUnits="userSpaceOnUse" color-interpolation-filters="sRGB">
<feFlood flood-opacity="0" result="BackgroundImageFix"/>
<feColorMatrix in="SourceAlpha" type="matrix" values="0 0 0 0 0 0 0 0 0 0 0 0 0 0 0 0 0 0 127 0" result="hardAlpha"/>
<feOffset dx="3" dy="4"/>
<feGaussianBlur stdDeviation="5"/>
<feComposite in2="hardAlpha" operator="out"/>
<feColorMatrix type="matrix" values="0 0 0 0 0 0 0 0 0 0 0 0 0 0 0 0 0 0 0.25 0"/>
<feBlend mode="normal" in2="BackgroundImageFix" result="effect1_dropShadow_79_1166"/>
<feBlend mode="normal" in="SourceGraphic" in2="effect1_dropShadow_79_1166" result="shape"/>
</filter>
</defs>
</svg>
