<svg width="91" height="92" viewBox="0 0 91 92" fill="none" xmlns="http://www.w3.org/2000/svg">
<g filter="url(#filter0_d_79_1167)">
<path d="M57.6 6L60.206 7.48616L62.7644 3H57.6V6ZM43.4 30.9L40.794 29.4138L38.2356 33.9H43.4V30.9ZM63.7 32.8L62.4635 35.5333L62.5023 35.5509L62.5416 35.5673L63.7 32.8ZM71.1 37.8L68.9453 39.8874L68.9784 39.9216L69.0126 39.9547L71.1 37.8ZM76.1 45.2L73.3327 46.3584L73.3491 46.3977L73.3667 46.4365L76.1 45.2ZM76.1 63.3L73.3559 62.0875L73.3492 62.1028L73.3426 62.1182L76.1 63.3ZM71.1 70.7L73.2213 72.8213L71.1 70.7ZM63.7 75.7L64.8818 78.4574L64.8972 78.4508L64.9125 78.4441L63.7 75.7ZM21.3 75.7L20.0635 78.4333L20.0907 78.4457L20.1182 78.4574L21.3 75.7ZM13.9 70.7L11.7453 72.7874L11.7784 72.8216L11.8126 72.8547L13.9 70.7ZM8.9 63.3L6.13268 64.4584L6.14912 64.4977L6.16668 64.5365L8.9 63.3ZM10.2 42.7L12.7896 44.2146L12.8105 44.1789L12.8304 44.1425L10.2 42.7ZM20.4 24.3L23.017 25.7667L20.4 24.3ZM30.6 6V3H28.8329L27.9762 4.54549L30.6 6ZM53.4 55.8L51.2787 53.6787L51.2787 53.6787L53.4 55.8ZM53.4 49.7L51.2787 51.8213V51.8213L53.4 49.7ZM54.994 4.51383L40.794 29.4138L46.006 32.3862L60.206 7.48616L54.994 4.51383ZM43.4 33.9H54.7V27.9H43.4V33.9ZM54.7 33.9C57.4916 33.9 60.0681 34.4497 62.4635 35.5333L64.9365 30.0667C61.7319 28.617 58.3084 27.9 54.7 27.9V33.9ZM62.5416 35.5673C65.0512 36.6179 67.1743 38.0593 68.9453 39.8874L73.2547 35.7126C70.8924 33.2741 68.0821 31.3821 64.8584 30.0327L62.5416 35.5673ZM69.0126 39.9547C70.8407 41.7257 72.2821 43.8488 73.3327 46.3584L78.8673 44.0416C77.5179 40.8179 75.6259 38.0076 73.1874 35.6453L69.0126 39.9547ZM73.3667 46.4365C74.4503 48.8319 75 51.4084 75 54.2H81C81 50.5916 80.283 47.1681 78.8333 43.9635L73.3667 46.4365ZM75 54.2C75 56.9915 74.4502 59.611 73.3559 62.0875L78.8441 64.5125C80.2831 61.2557 81 57.8085 81 54.2H75ZM73.3426 62.1182C72.2914 64.5709 70.8395 66.7179 68.9787 68.5787L73.2213 72.8213C75.6272 70.4154 77.5086 67.6291 78.8574 64.4818L73.3426 62.1182ZM68.9787 68.5787C67.1923 70.365 65.0401 71.8281 62.4875 72.9559L64.9125 78.4441C68.0933 77.0386 70.8743 75.1683 73.2213 72.8213L68.9787 68.5787ZM62.5182 72.9426C60.1104 73.9745 57.5146 74.5 54.7 74.5V80.5C58.2854 80.5 61.6896 79.8255 64.8818 78.4574L62.5182 72.9426ZM54.7 74.5H30.3V80.5H54.7V74.5ZM30.3 74.5C27.4854 74.5 24.8896 73.9745 22.4818 72.9426L20.1182 78.4574C23.3104 79.8255 26.7146 80.5 30.3 80.5V74.5ZM22.5365 72.9667C20.0403 71.8374 17.864 70.3632 15.9874 68.5453L11.8126 72.8547C14.2027 75.1701 16.9597 77.0292 20.0635 78.4333L22.5365 72.9667ZM16.0547 68.6126C14.2368 66.736 12.7626 64.5597 11.6333 62.0635L6.16668 64.5365C7.57076 67.6403 9.42987 70.3973 11.7453 72.7874L16.0547 68.6126ZM11.6673 62.1416C10.6255 59.6528 10.1 57.0143 10.1 54.2H4.1C4.1 57.7857 4.7745 61.2139 6.13268 64.4584L11.6673 62.1416ZM10.1 54.2C10.1 50.5936 10.9944 47.2838 12.7896 44.2146L7.61044 41.1853C5.27224 45.1829 4.1 49.5398 4.1 54.2H10.1ZM12.8304 44.1425C16.2261 37.9504 19.6216 31.8252 23.017 25.7667L17.783 22.8333C14.3784 28.9082 10.9739 35.0496 7.56956 41.2575L12.8304 44.1425ZM23.017 25.7667C26.4193 19.6959 29.8216 13.5919 33.2238 7.4545L27.9762 4.54549C24.5784 10.6748 21.1807 16.7707 17.783 22.8333L23.017 25.7667ZM30.6 9H57.6V3H30.6V9ZM34.7 45.4C32.6855 45.4 30.8945 46.1629 29.4787 47.5787L33.7213 51.8213C34.0389 51.5038 34.3145 51.4 34.7 51.4V45.4ZM29.4787 47.5787C28.0629 48.9945 27.3 50.7855 27.3 52.8H33.3C33.3 52.4145 33.4038 52.1389 33.7213 51.8213L29.4787 47.5787ZM27.3 52.8C27.3 54.7978 28.1 56.5426 29.4787 57.9213L33.7213 53.6787C33.3667 53.324 33.3 53.0689 33.3 52.8H27.3ZM29.4787 57.9213C30.8945 59.3371 32.6855 60.1 34.7 60.1V54.1C34.3145 54.1 34.0389 53.9962 33.7213 53.6787L29.4787 57.9213ZM34.7 60.1H50.3V54.1H34.7V60.1ZM50.3 60.1C52.3145 60.1 54.1055 59.3371 55.5213 57.9213L51.2787 53.6787C50.9611 53.9962 50.6855 54.1 50.3 54.1V60.1ZM55.5213 57.9213C56.9 56.5426 57.7 54.7978 57.7 52.8H51.7C51.7 53.0689 51.6333 53.324 51.2787 53.6787L55.5213 57.9213ZM57.7 52.8C57.7 50.7855 56.9371 48.9945 55.5213 47.5787L51.2787 51.8213C51.5962 52.1389 51.7 52.4145 51.7 52.8H57.7ZM55.5213 47.5787C54.1055 46.1629 52.3145 45.4 50.3 45.4V51.4C50.6855 51.4 50.9611 51.5038 51.2787 51.8213L55.5213 47.5787ZM50.3 45.4H34.7V51.4H50.3V45.4Z" fill="#22ADAA"/>
</g>
<defs>
<filter id="filter0_d_79_1167" x="0.100098" y="0" width="90.8999" height="91.5" filterUnits="userSpaceOnUse" color-interpolation-filters="sRGB">
<feFlood flood-opacity="0" result="BackgroundImageFix"/>
<feColorMatrix in="SourceAlpha" type="matrix" values="0 0 0 0 0 0 0 0 0 0 0 0 0 0 0 0 0 0 127 0" result="hardAlpha"/>
<feOffset dx="3" dy="4"/>
<feGaussianBlur stdDeviation="5"/>
<feComposite in2="hardAlpha" operator="out"/>
<feColorMatrix type="matrix" values="0 0 0 0 0 0 0 0 0 0 0 0 0 0 0 0 0 0 0.25 0"/>
<feBlend mode="normal" in2="BackgroundImageFix" result="effect1_dropShadow_79_1167"/>
<feBlend mode="normal" in="SourceGraphic" in2="effect1_dropShadow_79_1167" result="shape"/>
</filter>
</defs>
</svg>
