<svg width="90" height="94" viewBox="0 0 90 94" fill="none" xmlns="http://www.w3.org/2000/svg">
<g filter="url(#filter0_d_79_1169)">
<path d="M11.6 43L13.9182 44.9042L15.4824 43L13.9182 41.0958L11.6 43ZM8.1 36.9L5.24567 37.8235L5.26223 37.8747L5.28062 37.9252L8.1 36.9ZM8.8 20.8L6.05594 19.5875L6.04917 19.6028L6.04257 19.6182L8.8 20.8ZM13.8 13.4L11.6787 11.2787V11.2787L13.8 13.4ZM21.2 8.4L22.3818 11.1574L22.3972 11.1508L22.4125 11.1441L21.2 8.4ZM62.7 8.4L61.4635 11.1333L61.5023 11.1509L61.5416 11.1673L62.7 8.4ZM70.1 13.4L67.9453 15.4874L67.9784 15.5216L68.0126 15.5547L70.1 13.4ZM75.1 20.8L72.3327 21.9584L72.3491 21.9977L72.3667 22.0365L75.1 20.8ZM75.8 36.9L72.971 35.9015L72.9623 35.9264L72.954 35.9513L75.8 36.9ZM72.4 43L70.0818 41.0958L68.5176 43L70.0818 44.9042L72.4 43ZM75.8 49.2L72.9457 50.1235L72.9622 50.1747L72.9806 50.2252L75.8 49.2ZM75.1 65.3L72.3559 64.0875L72.3492 64.1028L72.3426 64.1182L75.1 65.3ZM70.1 72.7L67.9787 70.5787H67.9787L70.1 72.7ZM62.7 77.7L63.8818 80.4574L63.8972 80.4508L63.9125 80.4441L62.7 77.7ZM21.2 77.7L19.9635 80.4333L20.0023 80.4509L20.0416 80.4673L21.2 77.7ZM13.8 72.7L11.6453 74.7874L11.6784 74.8216L11.7126 74.8547L13.8 72.7ZM8.8 65.3L6.03268 66.4584L6.04912 66.4977L6.06668 66.5365L8.8 65.3ZM8.1 49.2L5.27103 48.2015L5.26227 48.2264L5.25395 48.2513L8.1 49.2ZM31.6 28.2L29.4787 26.0787L31.6 28.2ZM31.6 34.4L29.4787 36.5213L29.5211 36.5637L29.5652 36.6044L31.6 34.4ZM52.4 34.4L54.4348 36.6044L54.4789 36.5637L54.5213 36.5213L52.4 34.4ZM52.4 28.2L50.2787 30.3213L50.2787 30.3213L52.4 28.2ZM52.4 57.8L50.2787 55.6787L50.2787 55.6787L52.4 57.8ZM52.4 51.7L50.2787 53.8213L50.3211 53.8637L50.3652 53.9044L52.4 51.7ZM31.6 51.7L33.6348 53.9044L33.6789 53.8637L33.7213 53.8213L31.6 51.7ZM13.9182 41.0958C12.5935 39.4831 11.5996 37.7453 10.9194 35.8748L5.28062 37.9252C6.20041 40.4547 7.53984 42.7835 9.28182 44.9042L13.9182 41.0958ZM10.9543 35.9765C10.3209 34.0187 10 31.9643 10 29.8H4C4 32.569 4.41243 35.248 5.24567 37.8235L10.9543 35.9765ZM10 29.8C10 26.9854 10.5255 24.3896 11.5574 21.9818L6.04257 19.6182C4.6745 22.8104 4 26.2146 4 29.8H10ZM11.5441 22.0125C12.6719 19.4599 14.135 17.3077 15.9213 15.5213L11.6787 11.2787C9.33168 13.6257 7.4614 16.4067 6.05594 19.5875L11.5441 22.0125ZM15.9213 15.5213C17.7821 13.6605 19.9291 12.2086 22.3818 11.1574L20.0182 5.64256C16.8709 6.99141 14.0846 8.87279 11.6787 11.2787L15.9213 15.5213ZM22.4125 11.1441C24.889 10.0498 27.5085 9.5 30.3 9.5V3.5C26.6915 3.5 23.2443 4.21689 19.9875 5.65594L22.4125 11.1441ZM30.3 9.5H53.7V3.5H30.3V9.5ZM53.7 9.5C56.4916 9.5 59.0681 10.0497 61.4635 11.1333L63.9365 5.66667C60.7319 4.21696 57.3084 3.5 53.7 3.5V9.5ZM61.5416 11.1673C64.0512 12.2179 66.1743 13.6593 67.9453 15.4874L72.2547 11.3126C69.8924 8.87406 67.0821 6.98213 63.8584 5.63267L61.5416 11.1673ZM68.0126 15.5547C69.8407 17.3257 71.2821 19.4488 72.3327 21.9584L77.8673 19.6416C76.5179 16.4179 74.6259 13.6076 72.1874 11.2453L68.0126 15.5547ZM72.3667 22.0365C73.4503 24.4319 74 27.0084 74 29.8H80C80 26.1916 79.283 22.7681 77.8333 19.5635L72.3667 22.0365ZM74 29.8C74 31.9356 73.6549 33.964 72.971 35.9015L78.629 37.8985C79.5451 35.3027 80 32.5977 80 29.8H74ZM72.954 35.9513C72.3415 37.7888 71.3921 39.5007 70.0818 41.0958L74.7182 44.9042C76.4746 42.766 77.7919 40.4112 78.6461 37.8487L72.954 35.9513ZM70.0818 44.9042C71.38 46.4846 72.3297 48.2195 72.9457 50.1235L78.6543 48.2765C77.8037 45.6472 76.4867 43.2487 74.7182 41.0958L70.0818 44.9042ZM72.9806 50.2252C73.6548 52.0793 74 54.064 74 56.2H80C80 53.4026 79.5452 50.7207 78.6194 48.1748L72.9806 50.2252ZM74 56.2C74 58.9915 73.4502 61.611 72.3559 64.0875L77.8441 66.5125C79.2831 63.2557 80 59.8085 80 56.2H74ZM72.3426 64.1182C71.2914 66.5709 69.8395 68.7179 67.9787 70.5787L72.2213 74.8213C74.6272 72.4154 76.5086 69.6291 77.8574 66.4818L72.3426 64.1182ZM67.9787 70.5787C66.1923 72.365 64.0401 73.8281 61.4875 74.9559L63.9125 80.4441C67.0933 79.0386 69.8743 77.1683 72.2213 74.8213L67.9787 70.5787ZM61.5182 74.9426C59.1104 75.9745 56.5146 76.5 53.7 76.5V82.5C57.2854 82.5 60.6896 81.8255 63.8818 80.4574L61.5182 74.9426ZM53.7 76.5H30.3V82.5H53.7V76.5ZM30.3 76.5C27.4857 76.5 24.8472 75.9745 22.3584 74.9327L20.0416 80.4673C23.2861 81.8255 26.7143 82.5 30.3 82.5V76.5ZM22.4365 74.9667C19.9403 73.8374 17.764 72.3632 15.8874 70.5453L11.7126 74.8547C14.1027 77.1701 16.8597 79.0292 19.9635 80.4333L22.4365 74.9667ZM15.9547 70.6126C14.1368 68.736 12.6626 66.5597 11.5333 64.0635L6.06668 66.5365C7.47076 69.6403 9.32987 72.3973 11.6453 74.7874L15.9547 70.6126ZM11.5673 64.1416C10.5255 61.6528 10 59.0143 10 56.2H4C4 59.7857 4.6745 63.2139 6.03268 66.4584L11.5673 64.1416ZM10 56.2C10 54.0352 10.321 52.0238 10.9461 50.1487L5.25395 48.2513C4.41233 50.7762 4 53.4315 4 56.2H10ZM10.929 50.1985C11.6121 48.2628 12.6054 46.5024 13.9182 44.9042L9.28182 41.0958C7.52793 43.231 6.18786 45.6038 5.27103 48.2015L10.929 50.1985ZM34.7 23.9C32.6855 23.9 30.8945 24.6629 29.4787 26.0787L33.7213 30.3213C34.0389 30.0038 34.3145 29.9 34.7 29.9V23.9ZM29.4787 26.0787C28.0629 27.4945 27.3 29.2855 27.3 31.3H33.3C33.3 30.9145 33.4038 30.6389 33.7213 30.3213L29.4787 26.0787ZM27.3 31.3C27.3 33.3145 28.0629 35.1055 29.4787 36.5213L33.7213 32.2787C33.4038 31.9611 33.3 31.6855 33.3 31.3H27.3ZM29.5652 36.6044C30.9966 37.9257 32.7604 38.6 34.7 38.6V32.6C34.2396 32.6 33.9367 32.4743 33.6348 32.1956L29.5652 36.6044ZM34.7 38.6H49.3V32.6H34.7V38.6ZM49.3 38.6C51.2396 38.6 53.0034 37.9257 54.4348 36.6044L50.3652 32.1956C50.0633 32.4743 49.7604 32.6 49.3 32.6V38.6ZM54.5213 36.5213C55.9371 35.1055 56.7 33.3145 56.7 31.3H50.7C50.7 31.6855 50.5962 31.9611 50.2787 32.2787L54.5213 36.5213ZM56.7 31.3C56.7 29.2855 55.9371 27.4945 54.5213 26.0787L50.2787 30.3213C50.5962 30.6389 50.7 30.9145 50.7 31.3H56.7ZM54.5213 26.0787C53.1055 24.6629 51.3145 23.9 49.3 23.9V29.9C49.6855 29.9 49.9611 30.0038 50.2787 30.3213L54.5213 26.0787ZM49.3 23.9H34.7V29.9H49.3V23.9ZM34.7 62.1H49.3V56.1H34.7V62.1ZM49.3 62.1C51.3145 62.1 53.1055 61.3371 54.5213 59.9213L50.2787 55.6787C49.9611 55.9962 49.6855 56.1 49.3 56.1V62.1ZM54.5213 59.9213C55.9371 58.5055 56.7 56.7145 56.7 54.7H50.7C50.7 55.0855 50.5962 55.3611 50.2787 55.6787L54.5213 59.9213ZM56.7 54.7C56.7 52.6793 55.9288 50.8747 54.4348 49.4956L50.3652 53.9044C50.6045 54.1253 50.7 54.3207 50.7 54.7H56.7ZM54.5213 49.5787C53.1055 48.1629 51.3145 47.4 49.3 47.4V53.4C49.6855 53.4 49.9611 53.5038 50.2787 53.8213L54.5213 49.5787ZM49.3 47.4H34.7V53.4H49.3V47.4ZM34.7 47.4C32.6855 47.4 30.8945 48.1629 29.4787 49.5787L33.7213 53.8213C34.0389 53.5038 34.3145 53.4 34.7 53.4V47.4ZM29.5652 49.4956C28.0712 50.8747 27.3 52.6793 27.3 54.7H33.3C33.3 54.3207 33.3955 54.1253 33.6348 53.9044L29.5652 49.4956ZM27.3 54.7C27.3 56.7145 28.0629 58.5055 29.4787 59.9213L33.7213 55.6787C33.4038 55.3611 33.3 55.0855 33.3 54.7H27.3ZM29.4787 59.9213C30.8945 61.3371 32.6855 62.1 34.7 62.1V56.1C34.3145 56.1 34.0389 55.9962 33.7213 55.6787L29.4787 59.9213Z" fill="#22ADAA"/>
</g>
<defs>
<filter id="filter0_d_79_1169" x="0" y="0.5" width="90" height="93" filterUnits="userSpaceOnUse" color-interpolation-filters="sRGB">
<feFlood flood-opacity="0" result="BackgroundImageFix"/>
<feColorMatrix in="SourceAlpha" type="matrix" values="0 0 0 0 0 0 0 0 0 0 0 0 0 0 0 0 0 0 127 0" result="hardAlpha"/>
<feOffset dx="3" dy="4"/>
<feGaussianBlur stdDeviation="5"/>
<feComposite in2="hardAlpha" operator="out"/>
<feColorMatrix type="matrix" values="0 0 0 0 0 0 0 0 0 0 0 0 0 0 0 0 0 0 0.25 0"/>
<feBlend mode="normal" in2="BackgroundImageFix" result="effect1_dropShadow_79_1169"/>
<feBlend mode="normal" in="SourceGraphic" in2="effect1_dropShadow_79_1169" result="shape"/>
</filter>
</defs>
</svg>
