<svg width="91" height="92" viewBox="0 0 91 92" fill="none" xmlns="http://www.w3.org/2000/svg">
<g filter="url(#filter0_d_79_1170)">
<path d="M27.4 78L24.794 76.5138L22.2356 81H27.4V78ZM41.6 53.1L44.206 54.5862L46.7644 50.1H41.6V53.1ZM21.2 51.3L19.9635 54.0333L20.0023 54.0509L20.0416 54.0673L21.2 51.3ZM13.8 46.3L11.6453 48.3874L11.6784 48.4216L11.7126 48.4547L13.8 46.3ZM8.8 38.9L6.03268 40.0584L6.04912 40.0977L6.06668 40.1365L8.8 38.9ZM8.8 20.8L6.05594 19.5875L6.04917 19.6028L6.04257 19.6182L8.8 20.8ZM13.8 13.4L11.6787 11.2787V11.2787L13.8 13.4ZM21.2 8.4L22.3818 11.1574L22.3972 11.1508L22.4125 11.1441L21.2 8.4ZM63.7 8.4L62.4635 11.1333L62.5023 11.1509L62.5416 11.1673L63.7 8.4ZM71.1 13.4L68.9453 15.4874L68.9784 15.5216L69.0126 15.5547L71.1 13.4ZM76.1 20.8L73.3327 21.9584L73.3376 21.9701L73.3426 21.9818L76.1 20.8ZM74.8 41.3L72.2104 39.7854L72.1895 39.8211L72.1696 39.8575L74.8 41.3ZM64.6 59.7L67.217 61.1667V61.1667L64.6 59.7ZM54.4 78V81H56.1671L57.0238 79.4545L54.4 78ZM53.4 34.3L55.5213 36.4213L53.4 34.3ZM53.4 28.2L51.2787 30.3213V30.3213L53.4 28.2ZM31.6 28.2L29.4787 26.0787L31.6 28.2ZM31.6 34.3L29.4787 36.4213L29.4787 36.4213L31.6 34.3ZM30.006 79.4862L44.206 54.5862L38.994 51.6138L24.794 76.5138L30.006 79.4862ZM41.6 50.1H30.3V56.1H41.6V50.1ZM30.3 50.1C27.4857 50.1 24.8472 49.5745 22.3584 48.5327L20.0416 54.0673C23.2861 55.4255 26.7143 56.1 30.3 56.1V50.1ZM22.4365 48.5667C19.9403 47.4374 17.764 45.9632 15.8874 44.1453L11.7126 48.4547C14.1027 50.7701 16.8597 52.6292 19.9635 54.0333L22.4365 48.5667ZM15.9547 44.2126C14.1368 42.336 12.6626 40.1597 11.5333 37.6635L6.06668 40.1365C7.47076 43.2403 9.32987 45.9973 11.6453 48.3874L15.9547 44.2126ZM11.5673 37.7416C10.5255 35.2528 10 32.6143 10 29.8H4C4 33.3857 4.6745 36.8139 6.03268 40.0584L11.5673 37.7416ZM10 29.8C10 26.9854 10.5255 24.3896 11.5574 21.9818L6.04257 19.6182C4.6745 22.8104 4 26.2146 4 29.8H10ZM11.5441 22.0125C12.6719 19.4599 14.135 17.3077 15.9213 15.5213L11.6787 11.2787C9.33168 13.6257 7.4614 16.4067 6.05594 19.5875L11.5441 22.0125ZM15.9213 15.5213C17.7821 13.6605 19.9291 12.2086 22.3818 11.1574L20.0182 5.64256C16.8709 6.99141 14.0846 8.87279 11.6787 11.2787L15.9213 15.5213ZM22.4125 11.1441C24.889 10.0498 27.5085 9.5 30.3 9.5V3.5C26.6915 3.5 23.2443 4.21689 19.9875 5.65594L22.4125 11.1441ZM30.3 9.5H54.7V3.5H30.3V9.5ZM54.7 9.5C57.4916 9.5 60.0681 10.0497 62.4635 11.1333L64.9365 5.66667C61.7319 4.21696 58.3084 3.5 54.7 3.5V9.5ZM62.5416 11.1673C65.0512 12.2179 67.1743 13.6593 68.9453 15.4874L73.2547 11.3126C70.8924 8.87406 68.0821 6.98213 64.8584 5.63267L62.5416 11.1673ZM69.0126 15.5547C70.8407 17.3257 72.2821 19.4488 73.3327 21.9584L78.8673 19.6416C77.5179 16.4179 75.6259 13.6076 73.1874 11.2453L69.0126 15.5547ZM73.3426 21.9818C74.3745 24.3896 74.9 26.9854 74.9 29.8H80.9C80.9 26.2146 80.2255 22.8104 78.8574 19.6182L73.3426 21.9818ZM74.9 29.8C74.9 33.4064 74.0056 36.7162 72.2104 39.7854L77.3896 42.8146C79.7278 38.8171 80.9 34.4602 80.9 29.8H74.9ZM72.1696 39.8575C68.7739 46.0496 65.3784 52.1748 61.983 58.2333L67.217 61.1667C70.6216 55.0918 74.0261 48.9504 77.4304 42.7425L72.1696 39.8575ZM61.983 58.2333C58.5807 64.3041 55.1784 70.4081 51.7762 76.5455L57.0238 79.4545C60.4216 73.3252 63.8193 67.2293 67.217 61.1667L61.983 58.2333ZM54.4 75H27.4V81H54.4V75ZM50.3 38.6C52.3145 38.6 54.1055 37.8371 55.5213 36.4213L51.2787 32.1787C50.9611 32.4962 50.6855 32.6 50.3 32.6V38.6ZM55.5213 36.4213C56.9371 35.0055 57.7 33.2145 57.7 31.2H51.7C51.7 31.5855 51.5962 31.8611 51.2787 32.1787L55.5213 36.4213ZM57.7 31.2C57.7 29.2022 56.9 27.4574 55.5213 26.0787L51.2787 30.3213C51.6333 30.676 51.7 30.9311 51.7 31.2H57.7ZM55.5213 26.0787C54.1055 24.6629 52.3145 23.9 50.3 23.9V29.9C50.6855 29.9 50.9611 30.0038 51.2787 30.3213L55.5213 26.0787ZM50.3 23.9H34.7V29.9H50.3V23.9ZM34.7 23.9C32.6855 23.9 30.8945 24.6629 29.4787 26.0787L33.7213 30.3213C34.0389 30.0038 34.3145 29.9 34.7 29.9V23.9ZM29.4787 26.0787C28.1 27.4574 27.3 29.2022 27.3 31.2H33.3C33.3 30.9311 33.3667 30.676 33.7213 30.3213L29.4787 26.0787ZM27.3 31.2C27.3 33.2145 28.0629 35.0055 29.4787 36.4213L33.7213 32.1787C33.4038 31.8611 33.3 31.5855 33.3 31.2H27.3ZM29.4787 36.4213C30.8945 37.8371 32.6855 38.6 34.7 38.6V32.6C34.3145 32.6 34.0389 32.4962 33.7213 32.1787L29.4787 36.4213ZM34.7 38.6H50.3V32.6H34.7V38.6Z" fill="#22ADAA"/>
</g>
<defs>
<filter id="filter0_d_79_1170" x="0" y="0.5" width="90.8999" height="91.5" filterUnits="userSpaceOnUse" color-interpolation-filters="sRGB">
<feFlood flood-opacity="0" result="BackgroundImageFix"/>
<feColorMatrix in="SourceAlpha" type="matrix" values="0 0 0 0 0 0 0 0 0 0 0 0 0 0 0 0 0 0 127 0" result="hardAlpha"/>
<feOffset dx="3" dy="4"/>
<feGaussianBlur stdDeviation="5"/>
<feComposite in2="hardAlpha" operator="out"/>
<feColorMatrix type="matrix" values="0 0 0 0 0 0 0 0 0 0 0 0 0 0 0 0 0 0 0.25 0"/>
<feBlend mode="normal" in2="BackgroundImageFix" result="effect1_dropShadow_79_1170"/>
<feBlend mode="normal" in="SourceGraphic" in2="effect1_dropShadow_79_1170" result="shape"/>
</filter>
</defs>
</svg>
