<svg width="817" height="322" viewBox="0 0 817 322" fill="none" xmlns="http://www.w3.org/2000/svg">
<path d="M2.2 132H1.2V133H2.2V132ZM2.2 3.19999V2.19999H1.2V3.19999H2.2ZM120.328 14.608L119.621 15.3151L119.627 15.3213L119.633 15.3274L120.328 14.608ZM128.424 26.568L129.351 26.1923L128.424 26.568ZM128.056 56.192L128.965 56.6095L128.969 56.6004L128.056 56.192ZM120.144 67.416L119.466 66.6812L118.67 67.416L119.466 68.1508L120.144 67.416ZM127.688 78.824L126.758 79.1912L126.762 79.2017L126.766 79.2121L127.688 78.824ZM127.872 108.448L126.942 108.081L126.939 108.087L126.937 108.094L127.872 108.448ZM120.144 120.592L120.851 121.299L120.857 121.293L120.863 121.287L120.144 120.592ZM107.448 128.872L107.065 127.948L107.057 127.952L107.448 128.872ZM45.44 51.408H44.44V52.408H45.44V51.408ZM85.552 49.2L86.2303 49.9348L86.245 49.9212L86.2591 49.9071L85.552 49.2ZM85.552 37.792L84.8449 38.4991L84.859 38.5132L84.8737 38.5268L85.552 37.792ZM45.44 35.4V34.4H44.44V35.4H45.44ZM45.44 99.8H44.44V100.8H45.44V99.8ZM85.552 97.408L86.2591 98.1151L85.552 97.408ZM85.552 86L84.8449 86.7071L84.859 86.7212L84.8737 86.7348L85.552 86ZM45.44 83.608V82.608H44.44V83.608H45.44ZM3.2 132V3.19999H1.2V132H3.2ZM2.2 4.19999H90.704V2.19999H2.2V4.19999ZM90.704 4.19999C96.848 4.19999 102.358 5.22369 107.249 7.25174L108.015 5.40425C102.848 3.26163 97.072 2.19999 90.704 2.19999V4.19999ZM107.249 7.25174C112.172 9.29289 116.29 11.9838 119.621 15.3151L121.035 13.9009C117.497 10.3629 113.151 7.53378 108.015 5.40425L107.249 7.25174ZM119.633 15.3274C123.091 18.666 125.71 22.5359 127.497 26.9437L129.351 26.1923C127.458 21.5228 124.679 17.4194 121.023 13.8886L119.633 15.3274ZM127.497 26.9437C129.288 31.3598 130.184 36.0159 130.184 40.92H132.184C132.184 35.7654 131.24 30.8535 129.351 26.1923L127.497 26.9437ZM130.184 40.92C130.184 46.3108 129.167 51.2609 127.143 55.7836L128.969 56.6004C131.116 51.8004 132.184 46.5692 132.184 40.92H130.184ZM127.147 55.7745C125.109 60.2112 122.545 63.8392 119.466 66.6812L120.822 68.1508C124.122 65.1048 126.832 61.2502 128.965 56.6095L127.147 55.7745ZM119.466 68.1508C122.529 70.9781 124.965 74.6482 126.758 79.1912L128.618 78.4568C126.731 73.6772 124.138 69.7419 120.822 66.6812L119.466 68.1508ZM126.766 79.2121C128.674 83.7425 129.632 88.6389 129.632 93.912H131.632C131.632 88.3904 130.627 83.2282 128.61 78.4359L126.766 79.2121ZM129.632 93.912C129.632 98.8161 128.736 103.537 126.942 108.081L128.802 108.815C130.688 104.036 131.632 99.0666 131.632 93.912H129.632ZM126.937 108.094C125.268 112.503 122.767 116.436 119.425 119.897L120.863 121.287C124.391 117.633 127.041 113.47 128.807 108.802L126.937 108.094ZM119.437 119.885C116.106 123.216 111.988 125.907 107.065 127.948L107.831 129.796C112.967 127.666 117.313 124.837 120.851 121.299L119.437 119.885ZM107.057 127.952C102.293 129.976 96.8486 131 90.704 131V133C97.0714 133 102.789 131.939 107.839 129.792L107.057 127.952ZM90.704 131H2.2V133H90.704V131ZM45.44 52.408H79.848V50.408H45.44V52.408ZM79.848 52.408C82.3025 52.408 84.4474 51.5806 86.2303 49.9348L84.8737 48.4652C83.4673 49.7634 81.8095 50.408 79.848 50.408V52.408ZM86.2591 49.9071C88.0482 48.118 88.944 45.898 88.944 43.312H86.944C86.944 45.3874 86.2451 47.0927 84.8449 48.4929L86.2591 49.9071ZM88.944 43.312C88.944 40.8304 88.0341 38.7222 86.2303 37.0572L84.8737 38.5268C86.2593 39.8058 86.944 41.3776 86.944 43.312H88.944ZM86.2591 37.0849C84.4814 35.3072 82.3275 34.4 79.848 34.4V36.4C81.7845 36.4 83.4333 37.0875 84.8449 38.4991L86.2591 37.0849ZM79.848 34.4H45.44V36.4H79.848V34.4ZM44.44 35.4V51.408H46.44V35.4H44.44ZM45.44 100.8H79.848V98.8H45.44V100.8ZM79.848 100.8C82.3275 100.8 84.4814 99.8928 86.2591 98.1151L84.8449 96.7009C83.4333 98.1125 81.7845 98.8 79.848 98.8V100.8ZM86.2591 98.1151C88.0482 96.326 88.944 94.106 88.944 91.52H86.944C86.944 93.5954 86.2451 95.3007 84.8449 96.7009L86.2591 98.1151ZM88.944 91.52C88.944 89.0384 88.0341 86.9302 86.2303 85.2652L84.8737 86.7348C86.2593 88.0138 86.944 89.5856 86.944 91.52H88.944ZM86.2591 85.2929C84.4814 83.5152 82.3275 82.608 79.848 82.608V84.608C81.7845 84.608 83.4333 85.2955 84.8449 86.7071L86.2591 85.2929ZM79.848 82.608H45.44V84.608H79.848V82.608ZM44.44 83.608V99.8H46.44V83.608H44.44ZM237.847 3.19999L238.796 2.88417L238.568 2.19999H237.847V3.19999ZM280.719 132V133H282.106L281.668 131.684L280.719 132ZM235.639 132L234.689 132.311L234.915 133H235.639V132ZM232.143 121.328L233.094 121.017L232.868 120.328H232.143V121.328ZM183.935 121.328V120.328H183.211L182.985 121.017L183.935 121.328ZM180.439 132V133H181.164L181.39 132.311L180.439 132ZM135.359 132L134.411 131.684L133.973 133H135.359V132ZM178.231 3.19999V2.19999H177.51L177.283 2.88417L178.231 3.19999ZM194.791 89.128L193.842 88.8144L193.408 90.128H194.791V89.128ZM221.471 89.128V90.128H222.861L222.42 88.8105L221.471 89.128ZM208.039 49.016L208.988 48.6985L208.033 45.8472L207.09 48.7024L208.039 49.016ZM236.899 3.51581L279.771 132.316L281.668 131.684L238.796 2.88417L236.899 3.51581ZM280.719 131H235.639V133H280.719V131ZM236.59 131.689L233.094 121.017L231.193 121.639L234.689 132.311L236.59 131.689ZM232.143 120.328H183.935V122.328H232.143V120.328ZM182.985 121.017L179.489 131.689L181.39 132.311L184.886 121.639L182.985 121.017ZM180.439 131H135.359V133H180.439V131ZM136.308 132.316L179.18 3.51581L177.283 2.88417L134.411 131.684L136.308 132.316ZM178.231 4.19999H237.847V2.19999H178.231V4.19999ZM194.791 90.128H221.471V88.128H194.791V90.128ZM222.42 88.8105L208.988 48.6985L207.091 49.3335L220.523 89.4455L222.42 88.8105ZM207.09 48.7024L193.842 88.8144L195.741 89.4416L208.989 49.3296L207.09 48.7024ZM365.733 46.072H364.733V47.072H365.733V46.072ZM362.421 38.896L361.813 39.6903L361.839 39.7101L361.866 39.728L362.421 38.896ZM326.173 38.896L325.465 38.1889L325.451 38.203L325.438 38.2177L326.173 38.896ZM326.173 49.936L325.465 50.6431L325.48 50.6572L325.494 50.6708L326.173 49.936ZM383.949 55.456L383.547 56.3716L383.556 56.3758L383.566 56.3797L383.949 55.456ZM397.013 64.288L396.294 64.9834L396.305 64.9952L396.317 65.0066L397.013 64.288ZM405.845 77.352L404.921 77.735L404.925 77.7445L404.929 77.754L405.845 77.352ZM405.845 109.368L404.929 108.966L404.925 108.975L404.921 108.985L405.845 109.368ZM397.013 122.616L396.305 121.909L396.3 121.915L396.294 121.921L397.013 122.616ZM383.949 131.632L384.332 132.556L384.341 132.552L384.351 132.548L383.949 131.632ZM308.325 131.632L307.923 132.548L307.932 132.552L307.942 132.556L308.325 131.632ZM295.077 122.616L294.358 123.311L294.364 123.317L294.369 123.323L295.077 122.616ZM286.245 109.368L285.321 109.751L285.325 109.761L285.329 109.77L286.245 109.368ZM283.117 89.128V88.128H282.117V89.128H283.117ZM324.517 89.128H325.517V88.128H324.517V89.128ZM327.645 96.488L327.037 97.2824L327.063 97.3021L327.09 97.3201L327.645 96.488ZM363.893 96.304L363.185 95.5969L363.171 95.611L363.158 95.6257L363.893 96.304ZM363.893 85.264L363.185 85.9711L363.2 85.9852L363.214 85.9988L363.893 85.264ZM306.301 79.928L305.899 80.8436L305.908 80.8478L305.918 80.8517L306.301 79.928ZM293.053 71.096L292.334 71.7914L292.345 71.8032L292.357 71.8146L293.053 71.096ZM284.221 57.848L283.297 58.231L283.301 58.2405L283.305 58.25L284.221 57.848ZM284.221 25.832L283.305 25.43L283.3 25.4409L284.221 25.832ZM293.053 12.584L292.345 11.8769L292.34 11.8827L292.334 11.8886L293.053 12.584ZM306.301 3.752L306.684 4.67574L306.693 4.67179L306.703 4.66764L306.301 3.752ZM381.925 3.752L381.523 4.66764L381.532 4.67179L381.542 4.67574L381.925 3.752ZM394.989 12.584L394.27 13.2794L394.276 13.2853L394.281 13.2911L394.989 12.584ZM403.821 25.832L402.897 26.215L402.903 26.2288L402.909 26.2424L403.821 25.832ZM407.133 46.072V47.072H408.133V46.072H407.133ZM366.733 46.072V44.416H364.733V46.072H366.733ZM366.733 44.416C366.733 41.8029 365.397 39.6784 362.975 38.0639L361.866 39.728C363.86 41.0576 364.733 42.6131 364.733 44.416H366.733ZM363.028 38.1016C360.814 36.4086 358.521 35.504 356.165 35.504V37.504C357.979 37.504 359.856 38.194 361.813 39.6903L363.028 38.1016ZM356.165 35.504H331.877V37.504H356.165V35.504ZM331.877 35.504C329.397 35.504 327.243 36.4112 325.465 38.1889L326.88 39.6031C328.291 38.1915 329.94 37.504 331.877 37.504V35.504ZM325.438 38.2177C323.792 40.0006 322.965 42.1455 322.965 44.6H324.965C324.965 42.6385 325.609 40.9807 326.907 39.5743L325.438 38.2177ZM322.965 44.6C322.965 46.95 323.806 48.9832 325.465 50.6431L326.88 49.2289C325.596 47.9448 324.965 46.4206 324.965 44.6H322.965ZM325.494 50.6708C327.277 52.3166 329.422 53.144 331.877 53.144V51.144C329.915 51.144 328.257 50.4994 326.851 49.2012L325.494 50.6708ZM331.877 53.144H367.757V51.144H331.877V53.144ZM367.757 53.144C373.391 53.144 378.65 54.222 383.547 56.3716L384.351 54.5404C379.188 52.274 373.653 51.144 367.757 51.144V53.144ZM383.566 56.3797C388.472 58.4143 392.712 61.2819 396.294 64.9834L397.731 63.5926C393.953 59.6888 389.483 56.6684 384.332 54.5323L383.566 56.3797ZM396.317 65.0066C400.019 68.5887 402.886 72.8282 404.921 77.735L406.768 76.969C404.632 71.8171 401.612 67.3472 397.708 63.5694L396.317 65.0066ZM404.929 77.754C407.08 82.6531 408.157 87.8518 408.157 93.36H410.157C410.157 87.5828 409.025 82.1096 406.76 76.95L404.929 77.754ZM408.157 93.36C408.157 98.8681 407.08 104.067 404.929 108.966L406.76 109.77C409.025 104.61 410.157 99.1372 410.157 93.36H408.157ZM404.921 108.985C402.885 113.895 400.014 118.2 396.305 121.909L397.72 123.323C401.616 119.426 404.633 114.9 406.768 109.751L404.921 108.985ZM396.294 121.921C392.708 125.626 388.462 128.559 383.547 130.716L384.351 132.548C389.494 130.289 393.957 127.211 397.731 123.311L396.294 121.921ZM383.566 130.708C378.665 132.74 373.398 133.76 367.757 133.76V135.76C373.646 135.76 379.174 134.694 384.332 132.556L383.566 130.708ZM367.757 133.76H324.517V135.76H367.757V133.76ZM324.517 133.76C318.875 133.76 313.608 132.74 308.708 130.708L307.942 132.556C313.099 134.694 318.628 135.76 324.517 135.76V133.76ZM308.727 130.716C303.809 128.557 299.497 125.622 295.784 121.909L294.369 123.323C298.262 127.216 302.782 130.291 307.923 132.548L308.727 130.716ZM295.795 121.921C292.201 118.206 289.322 113.891 287.16 108.966L285.329 109.77C287.583 114.904 290.592 119.42 294.358 123.311L295.795 121.921ZM287.168 108.985C285.135 104.081 284.117 98.8761 284.117 93.36H282.117C282.117 99.1292 283.183 104.596 285.321 109.751L287.168 108.985ZM284.117 93.36V89.128H282.117V93.36H284.117ZM283.117 90.128H324.517V88.128H283.117V90.128ZM323.517 89.128V90.784H325.517V89.128H323.517ZM323.517 90.784C323.517 93.3641 324.757 95.5387 327.037 97.2824L328.252 95.6936C326.362 94.248 325.517 92.6199 325.517 90.784H323.517ZM327.09 97.3201C329.418 98.8718 331.754 99.696 334.085 99.696V97.696C332.244 97.696 330.288 97.0482 328.199 95.656L327.09 97.3201ZM334.085 99.696H358.373V97.696H334.085V99.696ZM358.373 99.696C360.854 99.696 362.962 98.7861 364.627 96.9823L363.158 95.6257C361.879 97.0113 360.307 97.696 358.373 97.696V99.696ZM364.6 97.0111C366.377 95.2334 367.285 93.0795 367.285 90.6H365.285C365.285 92.5365 364.597 94.1853 363.185 95.5969L364.6 97.0111ZM367.285 90.6C367.285 88.223 366.361 86.1818 364.571 84.5292L363.214 85.9988C364.613 87.2902 365.285 88.8063 365.285 90.6H367.285ZM364.6 84.5569C362.928 82.8851 360.828 82.056 358.373 82.056V84.056C360.333 84.056 361.913 84.6989 363.185 85.9711L364.6 84.5569ZM358.373 82.056H322.493V84.056H358.373V82.056ZM322.493 82.056C316.851 82.056 311.584 81.0363 306.684 79.0043L305.918 80.8517C311.075 82.9903 316.604 84.056 322.493 84.056V82.056ZM306.703 79.0124C301.778 76.8503 297.462 73.9717 293.748 70.3774L292.357 71.8146C296.248 75.5803 300.765 78.5897 305.899 80.8436L306.703 79.0124ZM293.771 70.4006C290.177 66.6865 287.298 62.3708 285.136 57.446L283.305 58.25C285.559 63.3839 288.568 67.9002 292.334 71.7914L293.771 70.4006ZM285.144 57.465C283.111 52.5615 282.093 47.3561 282.093 41.84H280.093C280.093 47.6092 281.159 53.0758 283.297 58.231L285.144 57.465ZM282.093 41.84C282.093 36.198 283.112 30.9963 285.141 26.2231L283.3 25.4409C281.158 30.481 280.093 35.9513 280.093 41.84H282.093ZM285.136 26.234C287.298 21.3092 290.177 16.9935 293.771 13.2794L292.334 11.8886C288.568 15.7798 285.559 20.2961 283.305 25.43L285.136 26.234ZM293.76 13.2911C297.468 9.58238 301.774 6.71146 306.684 4.67574L305.918 2.82825C300.769 4.9632 296.242 7.98028 292.345 11.8769L293.76 13.2911ZM306.703 4.66764C311.599 2.51802 316.859 1.43999 322.493 1.43999V-0.560006C316.596 -0.560006 311.061 0.569969 305.899 2.83635L306.703 4.66764ZM322.493 1.43999H365.733V-0.560006H322.493V1.43999ZM365.733 1.43999C371.367 1.43999 376.626 2.51802 381.523 4.66764L382.327 2.83635C377.164 0.569969 371.629 -0.560006 365.733 -0.560006V1.43999ZM381.542 4.67574C386.448 6.71026 390.688 9.57786 394.27 13.2794L395.707 11.8886C391.929 7.98479 387.459 4.96441 382.308 2.82825L381.542 4.67574ZM394.281 13.2911C397.99 16.9998 400.861 21.3053 402.897 26.215L404.744 25.449C402.609 20.3 399.592 15.7735 395.696 11.8769L394.281 13.2911ZM402.909 26.2424C405.055 31.011 406.133 36.2059 406.133 41.84H408.133C408.133 35.9435 407.003 30.4664 404.732 25.4216L402.909 26.2424ZM406.133 41.84V46.072H408.133V41.84H406.133ZM407.133 45.072H365.733V47.072H407.133V45.072ZM547.908 3.19999H548.908V2.19999H547.908V3.19999ZM547.908 46.072V47.072H548.908V46.072H547.908ZM505.036 46.072V45.072H504.036V46.072H505.036ZM505.036 132V133H506.036V132H505.036ZM461.98 132H460.98V133H461.98V132ZM461.98 46.072H462.98V45.072H461.98V46.072ZM419.108 46.072H418.108V47.072H419.108V46.072ZM419.108 3.19999V2.19999H418.108V3.19999H419.108ZM546.908 3.19999V46.072H548.908V3.19999H546.908ZM547.908 45.072H505.036V47.072H547.908V45.072ZM504.036 46.072V132H506.036V46.072H504.036ZM505.036 131H461.98V133H505.036V131ZM462.98 132V46.072H460.98V132H462.98ZM461.98 45.072H419.108V47.072H461.98V45.072ZM420.108 46.072V3.19999H418.108V46.072H420.108ZM419.108 4.19999H547.908V2.19999H419.108V4.19999ZM565.025 132H564.025V133H565.025V132ZM565.025 3.19999V2.19999H564.025V3.19999H565.025ZM672.297 3.19999H673.297V2.19999H672.297V3.19999ZM672.297 35.4V36.4H673.297V35.4H672.297ZM607.897 35.4V34.4H606.897V35.4H607.897ZM607.897 51.408H606.897V52.408H607.897V51.408ZM661.625 51.408H662.625V50.408H661.625V51.408ZM661.625 83.608V84.608H662.625V83.608H661.625ZM607.897 83.608V82.608H606.897V83.608H607.897ZM607.897 99.8H606.897V100.8H607.897V99.8ZM672.297 99.8H673.297V98.8H672.297V99.8ZM672.297 132V133H673.297V132H672.297ZM566.025 132V3.19999H564.025V132H566.025ZM565.025 4.19999H672.297V2.19999H565.025V4.19999ZM671.297 3.19999V35.4H673.297V3.19999H671.297ZM672.297 34.4H607.897V36.4H672.297V34.4ZM606.897 35.4V51.408H608.897V35.4H606.897ZM607.897 52.408H661.625V50.408H607.897V52.408ZM660.625 51.408V83.608H662.625V51.408H660.625ZM661.625 82.608H607.897V84.608H661.625V82.608ZM606.897 83.608V99.8H608.897V83.608H606.897ZM607.897 100.8H672.297V98.8H607.897V100.8ZM671.297 99.8V132H673.297V99.8H671.297ZM672.297 131H565.025V133H672.297V131ZM816.383 3.19999H817.383V2.19999H816.383V3.19999ZM816.383 46.072V47.072H817.383V46.072H816.383ZM773.511 46.072V45.072H772.511V46.072H773.511ZM773.511 132V133H774.511V132H773.511ZM730.455 132H729.455V133H730.455V132ZM730.455 46.072H731.455V45.072H730.455V46.072ZM687.583 46.072H686.583V47.072H687.583V46.072ZM687.583 3.19999V2.19999H686.583V3.19999H687.583ZM815.383 3.19999V46.072H817.383V3.19999H815.383ZM816.383 45.072H773.511V47.072H816.383V45.072ZM772.511 46.072V132H774.511V46.072H772.511ZM773.511 131H730.455V133H773.511V131ZM731.455 132V46.072H729.455V132H731.455ZM730.455 45.072H687.583V47.072H730.455V45.072ZM688.583 46.072V3.19999H686.583V46.072H688.583ZM687.583 4.19999H816.383V2.19999H687.583V4.19999ZM43.048 316L42.6493 316.917L42.6541 316.919L43.048 316ZM20.784 301.096L20.0701 301.796L20.0769 301.803L20.0838 301.81L20.784 301.096ZM5.88 278.832L4.96293 279.231L5.88 278.832ZM5.88 224.552L6.79707 224.951L5.88 224.552ZM20.784 202.472L20.0769 201.765L20.784 202.472ZM43.048 187.384L42.6541 186.465L42.6493 186.467L43.048 187.384ZM92.176 185.36L92.4922 184.411L92.176 185.36ZM111.312 195.296L110.715 196.098L110.724 196.105L110.734 196.112L111.312 195.296ZM126.584 210.384L125.776 210.973L125.784 210.984L126.584 210.384ZM136.704 230.072L136.836 231.063L138.023 230.906L137.656 229.765L136.704 230.072ZM92.36 235.96L91.5501 236.547L91.9001 237.03L92.4916 236.951L92.36 235.96ZM82.608 227.496L83.0772 226.613L82.608 227.496ZM59.792 226.576L60.1816 227.497L60.1899 227.493L60.1981 227.49L59.792 226.576ZM45.44 240.928L44.5262 240.522L44.5198 240.536L44.5139 240.551L45.44 240.928ZM45.44 262.272L44.5093 262.638L44.5173 262.658L44.5262 262.678L45.44 262.272ZM51.328 270.92L50.6209 271.627H50.6209L51.328 270.92ZM59.792 276.808L59.3729 277.716L59.3794 277.719L59.3859 277.722L59.792 276.808ZM82.608 275.888L82.1388 275.005L82.608 275.888ZM92.36 267.424L92.4916 266.433L91.9001 266.354L91.5501 266.837L92.36 267.424ZM136.704 273.312L137.654 273.623L138.029 272.479L136.836 272.321L136.704 273.312ZM126.584 293L125.778 292.408L125.776 292.411L126.584 293ZM111.312 308.272L111.898 309.082L111.901 309.08L111.312 308.272ZM92.176 318.024L92.4922 318.973L92.176 318.024ZM70.28 320.52C60.8441 320.52 51.9011 318.706 43.4419 315.081L42.6541 316.919C51.3683 320.654 60.5799 322.52 70.28 322.52V320.52ZM43.4467 315.083C35.091 311.45 27.7728 306.55 21.4842 300.382L20.0838 301.81C26.5526 308.154 34.077 313.19 42.6493 316.917L43.4467 315.083ZM21.4979 300.396C15.3303 294.107 10.43 286.789 6.79707 278.433L4.96293 279.231C8.69002 287.803 13.7257 295.327 20.0701 301.796L21.4979 300.396ZM6.79707 278.433C3.17449 270.101 1.36 261.16 1.36 251.6H-0.639999C-0.639999 261.421 1.22551 270.635 4.96293 279.231L6.79707 278.433ZM1.36 251.6C1.36 242.164 3.17379 233.284 6.79707 224.951L4.96293 224.153C1.22621 232.748 -0.639999 241.9 -0.639999 251.6H1.36ZM6.79707 224.951C10.4292 216.597 15.3276 209.343 21.4911 203.179L20.0769 201.765C13.7284 208.113 8.69076 215.579 4.96293 224.153L6.79707 224.951ZM21.4911 203.179C27.779 196.891 35.0951 191.932 43.4467 188.301L42.6493 186.467C34.0729 190.196 26.5463 195.295 20.0769 201.765L21.4911 203.179ZM43.4419 188.303C51.9011 184.678 60.8441 182.864 70.28 182.864V180.864C60.5799 180.864 51.3683 182.73 42.6541 186.465L43.4419 188.303ZM70.28 182.864C77.7813 182.864 84.973 184.013 91.8598 186.309L92.4922 184.411C85.395 182.046 77.9893 180.864 70.28 180.864V182.864ZM91.8598 186.309C98.7535 188.607 105.037 191.87 110.715 196.098L111.909 194.494C106.056 190.135 99.5825 186.775 92.4922 184.411L91.8598 186.309ZM110.734 196.112C116.533 200.219 121.546 205.172 125.776 210.973L127.392 209.795C123.035 203.82 117.867 198.714 111.89 194.48L110.734 196.112ZM125.784 210.984C130.131 216.78 133.454 223.243 135.752 230.379L137.656 229.765C135.292 222.426 131.869 215.764 127.384 209.784L125.784 210.984ZM136.572 229.081L92.2284 234.969L92.4916 236.951L136.836 231.063L136.572 229.081ZM93.1699 235.373C90.5034 231.691 87.1356 228.769 83.0772 226.613L82.1388 228.379C85.9311 230.394 89.0647 233.114 91.5501 236.547L93.1699 235.373ZM83.0772 226.613C79.0126 224.454 74.7428 223.368 70.28 223.368V225.368C74.4039 225.368 78.3527 226.368 82.1388 228.379L83.0772 226.613ZM70.28 223.368C66.4623 223.368 62.8277 224.132 59.3859 225.662L60.1981 227.49C63.3803 226.076 66.7377 225.368 70.28 225.368V223.368ZM59.4024 225.655C56.0942 227.055 53.1651 229.029 50.6209 231.573L52.0351 232.987C54.3976 230.625 57.1111 228.796 60.1816 227.497L59.4024 225.655ZM50.6209 231.573C48.0769 234.117 46.0458 237.103 44.5262 240.522L46.3538 241.334C47.7782 238.129 49.6724 235.35 52.0351 232.987L50.6209 231.573ZM44.5139 240.551C43.1127 243.99 42.416 247.676 42.416 251.6H44.416C44.416 247.918 45.0686 244.49 46.3661 241.305L44.5139 240.551ZM42.416 251.6C42.416 255.405 43.1143 259.087 44.5093 262.638L46.3708 261.906C45.0671 258.588 44.416 255.155 44.416 251.6H42.416ZM44.5262 262.678C46.0458 266.097 48.0769 269.083 50.6209 271.627L52.0351 270.213C49.6724 267.85 47.7782 265.071 46.3538 261.866L44.5262 262.678ZM50.6209 271.627C53.1587 274.165 56.0779 276.195 59.3729 277.716L60.2111 275.9C57.1275 274.477 54.404 272.582 52.0351 270.213L50.6209 271.627ZM59.3859 277.722C62.8277 279.252 66.4623 280.016 70.28 280.016V278.016C66.7377 278.016 63.3803 277.308 60.1981 275.894L59.3859 277.722ZM70.28 280.016C74.7428 280.016 79.0126 278.93 83.0772 276.771L82.1388 275.005C78.3527 277.016 74.4039 278.016 70.28 278.016V280.016ZM83.0772 276.771C87.1356 274.615 90.5034 271.693 93.1699 268.01L91.5501 266.837C89.0647 270.27 85.9311 272.99 82.1388 275.005L83.0772 276.771ZM92.2284 268.415L136.572 274.303L136.836 272.321L92.4916 266.433L92.2284 268.415ZM135.754 273.001C133.456 280.015 130.131 286.483 125.778 292.408L127.39 293.592C131.869 287.496 135.291 280.838 137.654 273.623L135.754 273.001ZM125.776 292.411C121.544 298.215 116.527 303.232 110.723 307.464L111.901 309.08C117.873 304.726 123.038 299.561 127.392 293.589L125.776 292.411ZM110.726 307.462C105.046 311.571 98.7588 314.776 91.8598 317.075L92.4922 318.973C99.5772 316.611 106.047 313.315 111.898 309.082L110.726 307.462ZM91.8598 317.075C84.973 319.371 77.7813 320.52 70.28 320.52V322.52C77.9893 322.52 85.395 321.338 92.4922 318.973L91.8598 317.075ZM239.824 187.2L240.773 186.884L240.545 186.2H239.824V187.2ZM282.696 316V317H284.083L283.645 315.684L282.696 316ZM237.616 316L236.666 316.311L236.891 317H237.616V316ZM234.12 305.328L235.07 305.017L234.845 304.328H234.12V305.328ZM185.912 305.328V304.328H185.187L184.962 305.017L185.912 305.328ZM182.416 316V317H183.141L183.366 316.311L182.416 316ZM137.336 316L136.387 315.684L135.949 317H137.336V316ZM180.208 187.2V186.2H179.487L179.259 186.884L180.208 187.2ZM196.768 273.128L195.818 272.814L195.385 274.128H196.768V273.128ZM223.448 273.128V274.128H224.837L224.396 272.81L223.448 273.128ZM210.016 233.016L210.964 232.698L210.009 229.847L209.066 232.702L210.016 233.016ZM238.875 187.516L281.747 316.316L283.645 315.684L240.773 186.884L238.875 187.516ZM282.696 315H237.616V317H282.696V315ZM238.566 315.689L235.07 305.017L233.17 305.639L236.666 316.311L238.566 315.689ZM234.12 304.328H185.912V306.328H234.12V304.328ZM184.962 305.017L181.466 315.689L183.366 316.311L186.862 305.639L184.962 305.017ZM182.416 315H137.336V317H182.416V315ZM138.285 316.316L181.157 187.516L179.259 186.884L136.387 315.684L138.285 316.316ZM180.208 188.2H239.824V186.2H180.208V188.2ZM196.768 274.128H223.448V272.128H196.768V274.128ZM224.396 272.81L210.964 232.698L209.068 233.334L222.5 273.446L224.396 272.81ZM209.066 232.702L195.818 272.814L197.717 273.442L210.965 233.33L209.066 232.702ZM390.078 191.432L389.68 192.349L389.686 192.352L390.078 191.432ZM407.19 203.024L406.474 203.722L406.483 203.731L406.492 203.74L407.19 203.024ZM418.782 220.136L417.862 220.528L417.865 220.534L418.782 220.136ZM420.622 256.384L419.669 256.082L419.667 256.089L419.664 256.097L420.622 256.384ZM414.366 270.184L415.206 270.727L415.213 270.716L414.366 270.184ZM392.102 289.504L391.685 288.595L390.548 289.117L391.307 290.111L392.102 289.504ZM412.342 316V317H414.364L413.137 315.393L412.342 316ZM365.054 316L364.238 316.579L364.537 317H365.054V316ZM349.782 294.472L350.598 293.893L350.299 293.472H349.782V294.472ZM337.086 294.472V293.472H336.086V294.472H337.086ZM337.086 316V317H338.086V316H337.086ZM294.214 316H293.214V317H294.214V316ZM294.214 187.2V186.2H293.214V187.2H294.214ZM337.086 230.072V229.072H336.086V230.072H337.086ZM337.086 251.6H336.086V252.6H337.086V251.6ZM377.014 248.472L376.307 247.765L377.014 248.472ZM377.014 233.2L376.307 233.907L377.014 233.2ZM369.286 188.2C376.514 188.2 383.309 189.585 389.68 192.349L390.476 190.515C383.844 187.637 376.778 186.2 369.286 186.2V188.2ZM389.686 192.352C396.195 195.124 401.787 198.915 406.474 203.722L407.906 202.326C403.025 197.32 397.209 193.382 390.47 190.512L389.686 192.352ZM406.492 203.74C411.299 208.427 415.09 214.019 417.862 220.528L419.702 219.744C416.832 213.005 412.894 207.189 407.888 202.308L406.492 203.74ZM417.865 220.534C420.629 226.905 422.014 233.7 422.014 240.928H424.014C424.014 233.436 422.577 226.37 419.699 219.738L417.865 220.534ZM422.014 240.928C422.014 246.1 421.233 251.15 419.669 256.082L421.575 256.686C423.201 251.559 424.014 246.305 424.014 240.928H422.014ZM419.664 256.097C418.218 260.918 416.17 265.436 413.519 269.652L415.213 270.716C417.96 266.346 420.082 261.663 421.58 256.671L419.664 256.097ZM413.526 269.641C410.879 273.732 407.691 277.402 403.957 280.654L405.271 282.162C409.143 278.79 412.455 274.978 415.206 270.727L413.526 269.641ZM403.957 280.654C400.226 283.904 396.136 286.55 391.685 288.595L392.52 290.413C397.146 288.287 401.397 285.536 405.271 282.162L403.957 280.654ZM391.307 290.111L411.547 316.607L413.137 315.393L392.897 288.897L391.307 290.111ZM412.342 315H365.054V317H412.342V315ZM365.87 315.421L350.598 293.893L348.966 295.051L364.238 316.579L365.87 315.421ZM349.782 293.472H337.086V295.472H349.782V293.472ZM336.086 294.472V316H338.086V294.472H336.086ZM337.086 315H294.214V317H337.086V315ZM295.214 316V187.2H293.214V316H295.214ZM294.214 188.2H369.286V186.2H294.214V188.2ZM369.286 229.072H337.086V231.072H369.286V229.072ZM336.086 230.072V251.6H338.086V230.072H336.086ZM337.086 252.6H369.286V250.6H337.086V252.6ZM369.286 252.6C372.606 252.6 375.44 251.46 377.721 249.179L376.307 247.765C374.417 249.655 372.099 250.6 369.286 250.6V252.6ZM377.721 249.179C379.994 246.907 381.142 244.138 381.142 240.928H379.142C379.142 243.606 378.205 245.867 376.307 247.765L377.721 249.179ZM381.142 240.928C381.142 237.608 380.002 234.774 377.721 232.493L376.307 233.907C378.197 235.797 379.142 238.115 379.142 240.928H381.142ZM377.721 232.493C375.44 230.212 372.606 229.072 369.286 229.072V231.072C372.099 231.072 374.417 232.017 376.307 233.907L377.721 232.493Z" fill="#22ADAA"/>
</svg>
